<?xml version="1.0" encoding="UTF-8"?>
<svg xmlns="http://www.w3.org/2000/svg" xmlns:xlink="http://www.w3.org/1999/xlink" width="23pt" height="23pt" viewBox="0 0 23 23" version="1.1">
<g id="surface1">
<path style=" stroke:none;fill-rule:evenodd;fill:rgb(85.098039%,30.980392%,32.941176%);fill-opacity:1;" d="M 2.523438 0.765625 C 2.5 0.820312 2.5 0.820312 2.554688 0.820312 C 2.582031 0.820312 2.59375 0.832031 2.585938 0.84375 C 2.578125 0.855469 2.582031 0.867188 2.597656 0.867188 C 2.609375 0.867188 2.617188 0.847656 2.617188 0.820312 C 2.613281 0.796875 2.601562 0.777344 2.585938 0.777344 C 2.570312 0.777344 2.550781 0.765625 2.546875 0.75 C 2.542969 0.734375 2.53125 0.738281 2.523438 0.765625 M 1.898438 0.796875 C 1.890625 0.8125 1.898438 0.824219 1.914062 0.824219 C 1.933594 0.824219 1.933594 0.828125 1.910156 0.84375 C 1.878906 0.863281 1.878906 0.867188 1.910156 0.867188 C 1.941406 0.867188 1.941406 0.871094 1.910156 0.890625 C 1.890625 0.902344 1.886719 0.910156 1.898438 0.910156 C 1.957031 0.910156 1.972656 0.878906 1.945312 0.824219 C 1.925781 0.789062 1.910156 0.78125 1.898438 0.796875 M 2.507812 0.855469 C 2.507812 0.855469 2.53125 0.878906 2.566406 0.90625 C 2.597656 0.9375 2.621094 0.945312 2.621094 0.925781 C 2.621094 0.914062 2.597656 0.886719 2.5625 0.875 C 2.53125 0.859375 2.507812 0.851562 2.507812 0.855469 M 1.808594 0.953125 C 1.800781 0.964844 1.808594 0.984375 1.828125 1 C 1.855469 1.023438 1.863281 1.019531 1.863281 0.980469 C 1.863281 0.933594 1.832031 0.917969 1.808594 0.953125 M 2.660156 0.996094 C 2.660156 1.027344 2.675781 1.054688 2.6875 1.050781 C 2.738281 1.039062 2.792969 1.109375 2.761719 1.140625 C 2.742188 1.164062 2.75 1.179688 2.804688 1.199219 C 2.84375 1.214844 2.871094 1.234375 2.863281 1.242188 C 2.859375 1.253906 2.878906 1.269531 2.910156 1.285156 C 2.945312 1.300781 2.96875 1.300781 2.980469 1.285156 C 2.988281 1.273438 3.011719 1.285156 3.039062 1.3125 C 3.0625 1.339844 3.082031 1.351562 3.082031 1.335938 C 3.082031 1.324219 3.09375 1.3125 3.109375 1.316406 C 3.121094 1.320312 3.136719 1.308594 3.144531 1.289062 C 3.152344 1.265625 3.148438 1.261719 3.132812 1.285156 C 3.117188 1.304688 3.097656 1.296875 3.046875 1.25 L 2.976562 1.1875 L 2.9375 1.234375 C 2.914062 1.257812 2.902344 1.265625 2.90625 1.25 C 2.914062 1.238281 2.90625 1.210938 2.886719 1.191406 C 2.867188 1.171875 2.851562 1.152344 2.851562 1.144531 C 2.855469 1.097656 2.847656 1.089844 2.828125 1.101562 C 2.8125 1.109375 2.796875 1.09375 2.789062 1.070312 C 2.785156 1.046875 2.757812 1.019531 2.734375 1.015625 C 2.710938 1.007812 2.691406 0.992188 2.695312 0.976562 C 2.699219 0.960938 2.691406 0.945312 2.679688 0.941406 C 2.664062 0.9375 2.65625 0.960938 2.660156 0.996094 M 1.769531 1.015625 C 1.746094 1.019531 1.722656 1.046875 1.71875 1.070312 C 1.710938 1.09375 1.695312 1.109375 1.683594 1.101562 C 1.671875 1.09375 1.65625 1.105469 1.648438 1.121094 C 1.621094 1.183594 1.679688 1.179688 1.746094 1.113281 C 1.800781 1.058594 1.84375 0.988281 1.8125 1.003906 C 1.808594 1.003906 1.789062 1.007812 1.769531 1.015625 M 1.460938 1.25 C 1.398438 1.308594 1.394531 1.3125 1.4375 1.351562 C 1.472656 1.386719 1.476562 1.386719 1.464844 1.351562 C 1.453125 1.316406 1.507812 1.285156 1.621094 1.269531 C 1.652344 1.265625 1.660156 1.179688 1.632812 1.179688 C 1.621094 1.179688 1.609375 1.191406 1.609375 1.207031 C 1.609375 1.222656 1.601562 1.226562 1.59375 1.210938 C 1.5625 1.171875 1.53125 1.183594 1.460938 1.25 M 1.09375 1.398438 C 1.085938 1.414062 1.109375 1.421875 1.15625 1.421875 C 1.21875 1.417969 1.222656 1.414062 1.183594 1.398438 C 1.121094 1.375 1.109375 1.375 1.09375 1.398438 M 0.964844 1.640625 C 0.96875 1.675781 1.011719 1.722656 1.011719 1.6875 C 1.011719 1.660156 1.015625 1.660156 1.035156 1.6875 C 1.054688 1.71875 1.058594 1.71875 1.058594 1.6875 C 1.058594 1.664062 1.039062 1.644531 1.011719 1.636719 C 0.988281 1.632812 0.964844 1.632812 0.964844 1.640625 M 2.941406 1.859375 C 2.941406 1.871094 2.941406 1.886719 2.941406 1.894531 C 2.941406 1.902344 2.933594 1.910156 2.921875 1.910156 C 2.910156 1.910156 2.894531 1.929688 2.886719 1.957031 C 2.875 1.996094 2.832031 2.007812 2.804688 1.976562 C 2.800781 1.96875 2.773438 1.96875 2.75 1.980469 C 2.703125 1.996094 2.703125 1.996094 2.746094 2 C 2.789062 2 2.789062 2.003906 2.742188 2.050781 C 2.714844 2.078125 2.699219 2.109375 2.707031 2.117188 C 2.714844 2.125 2.703125 2.132812 2.675781 2.132812 C 2.640625 2.132812 2.640625 2.136719 2.667969 2.15625 C 2.699219 2.175781 2.699219 2.179688 2.667969 2.199219 C 2.640625 2.214844 2.640625 2.222656 2.664062 2.222656 C 2.679688 2.222656 2.699219 2.203125 2.707031 2.179688 C 2.714844 2.152344 2.734375 2.132812 2.75 2.132812 C 2.769531 2.132812 2.78125 2.113281 2.78125 2.089844 C 2.78125 2.054688 2.796875 2.042969 2.863281 2.042969 C 2.910156 2.042969 2.941406 2.035156 2.933594 2.023438 C 2.917969 1.996094 3 1.953125 3.023438 1.972656 C 3.035156 1.980469 3.035156 1.976562 3.027344 1.960938 C 3.015625 1.945312 2.996094 1.933594 2.980469 1.941406 C 2.960938 1.949219 2.953125 1.933594 2.957031 1.898438 C 2.960938 1.851562 2.949219 1.816406 2.941406 1.859375 M 1.503906 1.945312 C 1.480469 1.964844 1.472656 1.976562 1.488281 1.96875 C 1.507812 1.957031 1.527344 1.972656 1.539062 2.003906 C 1.550781 2.03125 1.5625 2.042969 1.5625 2.027344 C 1.5625 1.988281 1.632812 2.050781 1.632812 2.089844 C 1.632812 2.113281 1.726562 2.15625 1.746094 2.144531 C 1.75 2.140625 1.738281 2.121094 1.71875 2.101562 C 1.699219 2.082031 1.675781 2.074219 1.667969 2.085938 C 1.660156 2.09375 1.65625 2.078125 1.660156 2.054688 C 1.664062 2.03125 1.683594 2.015625 1.699219 2.015625 C 1.714844 2.019531 1.722656 2.011719 1.714844 2 C 1.703125 1.988281 1.679688 1.980469 1.65625 1.988281 C 1.628906 1.996094 1.601562 1.984375 1.582031 1.957031 C 1.550781 1.914062 1.546875 1.914062 1.503906 1.945312 M 1.753906 2.171875 C 1.722656 2.183594 1.714844 2.222656 1.742188 2.21875 C 1.792969 2.210938 1.8125 2.226562 1.800781 2.253906 C 1.785156 2.296875 1.851562 2.300781 1.875 2.261719 C 1.886719 2.246094 1.882812 2.242188 1.875 2.25 C 1.863281 2.257812 1.839844 2.242188 1.820312 2.214844 C 1.800781 2.1875 1.769531 2.167969 1.753906 2.171875 M 2.585938 2.230469 C 2.570312 2.246094 2.566406 2.269531 2.570312 2.289062 C 2.578125 2.308594 2.574219 2.316406 2.5625 2.304688 C 2.554688 2.296875 2.53125 2.308594 2.511719 2.335938 C 2.484375 2.371094 2.484375 2.386719 2.507812 2.398438 C 2.527344 2.414062 2.527344 2.417969 2.503906 2.429688 C 2.488281 2.4375 2.492188 2.441406 2.519531 2.4375 C 2.542969 2.433594 2.5625 2.417969 2.558594 2.402344 C 2.554688 2.386719 2.5625 2.378906 2.574219 2.386719 C 2.605469 2.40625 2.625 2.351562 2.617188 2.269531 C 2.613281 2.222656 2.605469 2.210938 2.585938 2.230469 M 1.886719 2.324219 C 1.886719 2.34375 1.898438 2.351562 1.914062 2.339844 C 1.9375 2.328125 1.9375 2.332031 1.914062 2.359375 C 1.882812 2.398438 1.917969 2.445312 1.976562 2.445312 C 2.039062 2.445312 2.019531 2.363281 1.949219 2.328125 C 1.894531 2.296875 1.886719 2.296875 1.886719 2.324219 M 2.5 2.5 C 2.480469 2.515625 2.460938 2.523438 2.453125 2.515625 C 2.445312 2.511719 2.4375 2.511719 2.4375 2.523438 C 2.4375 2.535156 2.449219 2.558594 2.464844 2.574219 C 2.488281 2.59375 2.484375 2.601562 2.453125 2.601562 C 2.433594 2.601562 2.414062 2.617188 2.414062 2.640625 C 2.410156 2.671875 2.410156 2.671875 2.390625 2.632812 C 2.375 2.59375 2.371094 2.597656 2.371094 2.652344 C 2.371094 2.691406 2.351562 2.734375 2.335938 2.753906 C 2.304688 2.789062 2.304688 2.792969 2.332031 2.792969 C 2.351562 2.792969 2.363281 2.785156 2.355469 2.773438 C 2.347656 2.765625 2.367188 2.757812 2.394531 2.761719 C 2.4375 2.765625 2.445312 2.753906 2.449219 2.703125 C 2.453125 2.667969 2.472656 2.625 2.496094 2.609375 C 2.527344 2.585938 2.53125 2.578125 2.503906 2.578125 C 2.476562 2.578125 2.476562 2.574219 2.507812 2.550781 C 2.539062 2.523438 2.566406 2.464844 2.542969 2.464844 C 2.539062 2.464844 2.519531 2.480469 2.5 2.5 M 2.003906 2.5625 C 1.984375 2.585938 1.984375 2.597656 2.011719 2.609375 C 2.035156 2.617188 2.046875 2.652344 2.046875 2.734375 C 2.046875 2.796875 2.054688 2.839844 2.066406 2.835938 C 2.078125 2.828125 2.09375 2.835938 2.101562 2.851562 C 2.109375 2.863281 2.113281 2.855469 2.105469 2.828125 C 2.101562 2.800781 2.105469 2.785156 2.117188 2.789062 C 2.128906 2.796875 2.140625 2.792969 2.140625 2.777344 C 2.140625 2.765625 2.121094 2.753906 2.097656 2.753906 C 2.074219 2.753906 2.070312 2.75 2.082031 2.738281 C 2.128906 2.707031 2.109375 2.558594 2.066406 2.582031 C 2.035156 2.597656 2.027344 2.59375 2.039062 2.566406 C 2.054688 2.523438 2.039062 2.523438 2.003906 2.5625 M 2.148438 2.878906 C 2.144531 2.921875 2.25 2.953125 2.253906 2.910156 C 2.257812 2.90625 2.261719 2.886719 2.265625 2.867188 C 2.269531 2.84375 2.253906 2.832031 2.210938 2.832031 C 2.164062 2.832031 2.148438 2.84375 2.148438 2.878906 M 12.226562 4.269531 C 12.128906 4.359375 12.023438 4.429688 11.890625 4.496094 L 11.695312 4.589844 L 11.28125 4.585938 L 10.867188 4.585938 L 10.691406 4.503906 C 10.585938 4.453125 10.472656 4.378906 10.398438 4.308594 L 10.277344 4.191406 L 10.285156 5.453125 C 10.292969 6.96875 10.265625 6.859375 10.59375 6.621094 C 10.71875 6.527344 10.832031 6.453125 10.84375 6.445312 C 10.855469 6.441406 10.898438 6.414062 10.933594 6.386719 C 10.96875 6.355469 11.007812 6.332031 11.015625 6.332031 C 11.027344 6.332031 11.078125 6.296875 11.125 6.257812 C 11.253906 6.140625 11.445312 6.125 11.5 6.222656 C 11.515625 6.246094 11.539062 6.265625 11.558594 6.265625 C 11.578125 6.265625 11.597656 6.28125 11.605469 6.300781 C 11.613281 6.316406 11.640625 6.339844 11.667969 6.347656 C 11.695312 6.355469 11.765625 6.398438 11.824219 6.441406 C 12.144531 6.675781 12.308594 6.78125 12.328125 6.765625 C 12.339844 6.753906 12.351562 6.179688 12.355469 5.4375 C 12.359375 4.71875 12.363281 4.132812 12.363281 4.132812 C 12.363281 4.136719 12.300781 4.195312 12.226562 4.269531 M 6.628906 7.4375 C 6.714844 7.441406 6.859375 7.441406 6.949219 7.4375 C 7.042969 7.433594 6.972656 7.429688 6.796875 7.429688 C 6.621094 7.429688 6.542969 7.433594 6.628906 7.4375 M 15.714844 7.4375 C 15.796875 7.441406 15.945312 7.441406 16.035156 7.4375 C 16.128906 7.433594 16.058594 7.429688 15.882812 7.429688 C 15.703125 7.429688 15.628906 7.433594 15.714844 7.4375 M 3.558594 14.578125 C 3.542969 14.601562 3.519531 14.621094 3.503906 14.621094 C 3.480469 14.621094 3.472656 14.703125 3.472656 14.964844 L 3.472656 15.308594 L 3.558594 15.316406 C 3.625 15.320312 3.648438 15.332031 3.652344 15.367188 C 3.675781 15.523438 3.648438 15.511719 4 15.511719 C 4.269531 15.511719 4.320312 15.515625 4.332031 15.546875 C 4.355469 15.605469 4.347656 18.414062 4.324219 18.476562 C 4.300781 18.53125 4.300781 18.53125 3.988281 18.539062 L 3.671875 18.542969 L 3.65625 18.613281 C 3.640625 18.679688 3.539062 18.800781 3.496094 18.800781 C 3.445312 18.800781 3.46875 19.335938 3.519531 19.347656 C 3.542969 19.355469 3.566406 19.375 3.566406 19.390625 C 3.566406 19.472656 4.367188 19.472656 4.441406 19.390625 C 4.476562 19.351562 4.515625 19.332031 4.5625 19.332031 C 4.601562 19.332031 4.652344 19.316406 4.675781 19.292969 C 4.71875 19.257812 5.050781 19.253906 10.839844 19.25 C 16.003906 19.242188 16.964844 19.238281 16.980469 19.210938 C 16.988281 19.195312 17.039062 19.175781 17.09375 19.167969 C 17.207031 19.148438 17.503906 19 17.605469 18.910156 C 17.644531 18.875 17.703125 18.824219 17.734375 18.796875 C 17.765625 18.769531 17.828125 18.695312 17.871094 18.640625 C 17.914062 18.582031 17.960938 18.535156 17.976562 18.535156 C 18.074219 18.535156 18.214844 18.441406 18.214844 18.375 C 18.214844 18.332031 18.226562 18.3125 18.25 18.3125 C 18.273438 18.3125 18.285156 18.289062 18.285156 18.234375 C 18.285156 18.179688 18.296875 18.15625 18.332031 18.148438 C 18.367188 18.140625 18.378906 18.117188 18.378906 18.035156 C 18.378906 17.964844 18.390625 17.921875 18.421875 17.890625 C 18.46875 17.847656 18.46875 17.816406 18.46875 17.035156 C 18.46875 16.210938 18.464844 16.15625 18.410156 16.15625 C 18.382812 16.15625 18.378906 16.117188 18.378906 15.996094 C 18.378906 15.859375 18.371094 15.839844 18.332031 15.828125 C 18.300781 15.820312 18.285156 15.796875 18.285156 15.765625 C 18.285156 15.738281 18.269531 15.703125 18.25 15.6875 C 18.234375 15.675781 18.210938 15.628906 18.203125 15.585938 C 18.195312 15.542969 18.175781 15.511719 18.15625 15.511719 C 18.136719 15.511719 18.125 15.496094 18.125 15.476562 C 18.125 15.457031 18.101562 15.433594 18.078125 15.429688 C 18.042969 15.421875 18.03125 15.398438 18.03125 15.34375 C 18.03125 15.289062 18.019531 15.265625 17.996094 15.265625 C 17.976562 15.265625 17.964844 15.246094 17.964844 15.222656 C 17.964844 15.191406 17.949219 15.179688 17.917969 15.179688 C 17.890625 15.179688 17.871094 15.164062 17.871094 15.144531 C 17.871094 15.125 17.855469 15.105469 17.835938 15.097656 C 17.816406 15.089844 17.800781 15.074219 17.800781 15.066406 C 17.800781 15.027344 17.621094 14.867188 17.578125 14.867188 C 17.554688 14.867188 17.523438 14.847656 17.507812 14.820312 C 17.492188 14.796875 17.453125 14.777344 17.425781 14.777344 C 17.394531 14.777344 17.363281 14.761719 17.355469 14.746094 C 17.347656 14.726562 17.324219 14.710938 17.296875 14.710938 C 17.269531 14.710938 17.230469 14.691406 17.210938 14.667969 C 17.175781 14.628906 17.140625 14.621094 16.9375 14.621094 C 16.722656 14.621094 16.703125 14.617188 16.691406 14.578125 C 16.675781 14.519531 14.179688 14.515625 14.179688 14.574219 C 14.179688 14.589844 14.160156 14.617188 14.140625 14.632812 C 14.117188 14.648438 14.097656 14.671875 14.097656 14.683594 C 14.097656 14.753906 14.03125 14.753906 11.28125 14.757812 L 8.523438 14.757812 L 8.496094 14.703125 C 8.476562 14.671875 8.4375 14.644531 8.394531 14.636719 C 8.335938 14.625 8.324219 14.613281 8.335938 14.578125 C 8.359375 14.507812 3.605469 14.507812 3.558594 14.578125 M 6.085938 15.535156 C 6.09375 15.546875 6.097656 15.945312 6.097656 16.417969 C 6.097656 16.890625 6.105469 17.296875 6.117188 17.320312 C 6.128906 17.347656 6.136719 17.355469 6.140625 17.339844 C 6.140625 17.324219 6.164062 17.308594 6.191406 17.296875 C 6.234375 17.285156 6.695312 17.042969 6.808594 16.976562 C 6.828125 16.964844 6.878906 16.9375 6.921875 16.917969 C 6.96875 16.898438 7.007812 16.878906 7.015625 16.871094 C 7.019531 16.863281 7.105469 16.816406 7.203125 16.769531 C 7.300781 16.722656 7.386719 16.675781 7.394531 16.664062 C 7.417969 16.628906 7.546875 16.644531 7.605469 16.6875 C 7.640625 16.714844 7.679688 16.734375 7.699219 16.734375 C 7.71875 16.734375 7.757812 16.753906 7.789062 16.777344 C 7.824219 16.800781 7.863281 16.820312 7.878906 16.820312 C 7.894531 16.820312 7.917969 16.835938 7.933594 16.851562 C 7.949219 16.871094 7.988281 16.890625 8.023438 16.898438 C 8.054688 16.90625 8.089844 16.921875 8.097656 16.929688 C 8.105469 16.945312 8.539062 17.183594 8.714844 17.269531 C 8.859375 17.34375 8.855469 17.371094 8.855469 16.429688 C 8.855469 15.636719 8.859375 15.570312 8.894531 15.542969 C 8.953125 15.5 15.453125 15.496094 15.496094 15.539062 C 15.539062 15.578125 15.539062 18.453125 15.496094 18.484375 C 15.460938 18.511719 5.144531 18.527344 5.078125 18.5 C 5.027344 18.480469 5.011719 15.585938 5.066406 15.539062 C 5.101562 15.503906 6.0625 15.5 6.085938 15.535156 M 16.960938 15.589844 C 17.460938 15.824219 17.636719 16.1875 17.640625 16.984375 C 17.640625 17.753906 17.496094 18.117188 17.085938 18.367188 C 16.859375 18.507812 16.320312 18.574219 16.261719 18.46875 C 16.234375 18.421875 16.226562 15.609375 16.253906 15.546875 C 16.28125 15.46875 16.769531 15.496094 16.960938 15.589844 "/>
<path style=" stroke:none;fill-rule:evenodd;fill:rgb(89.019608%,88.627451%,88.627451%);fill-opacity:1;" d="M 3.335938 1.511719 C 3.335938 1.5625 3.320312 1.625 3.296875 1.65625 C 3.253906 1.71875 3.265625 1.816406 3.3125 1.800781 C 3.332031 1.796875 3.382812 1.792969 3.429688 1.792969 C 3.496094 1.789062 3.507812 1.78125 3.492188 1.761719 C 3.472656 1.738281 3.476562 1.734375 3.507812 1.746094 C 3.539062 1.757812 3.542969 1.753906 3.53125 1.734375 C 3.511719 1.703125 3.5625 1.640625 3.597656 1.660156 C 3.609375 1.667969 3.613281 1.664062 3.605469 1.65625 C 3.597656 1.644531 3.601562 1.621094 3.617188 1.605469 C 3.640625 1.578125 3.632812 1.5625 3.574219 1.519531 C 3.539062 1.492188 3.519531 1.464844 3.53125 1.464844 C 3.589844 1.464844 3.476562 1.421875 3.410156 1.421875 C 3.335938 1.421875 3.335938 1.425781 3.335938 1.511719 M 10.9375 1.621094 C 10.613281 1.683594 10.261719 1.9375 10.144531 2.199219 C 10.132812 2.230469 10.113281 2.269531 10.101562 2.289062 C 10.039062 2.398438 10.003906 2.476562 10.007812 2.507812 C 10.007812 2.527344 10.046875 2.46875 10.09375 2.375 C 10.214844 2.132812 10.488281 1.800781 10.566406 1.800781 C 10.582031 1.800781 10.617188 1.78125 10.648438 1.753906 C 10.679688 1.730469 10.730469 1.710938 10.757812 1.710938 C 10.789062 1.710938 10.84375 1.695312 10.886719 1.675781 C 10.9375 1.648438 11.050781 1.632812 11.269531 1.621094 L 11.582031 1.605469 L 11.304688 1.605469 C 11.152344 1.605469 10.988281 1.613281 10.9375 1.621094 M 11.671875 1.660156 C 11.820312 1.710938 11.890625 1.71875 11.777344 1.667969 C 11.722656 1.644531 11.65625 1.621094 11.628906 1.625 C 11.597656 1.625 11.609375 1.636719 11.671875 1.660156 M 11.890625 1.71875 C 11.890625 1.726562 11.964844 1.777344 12.054688 1.832031 C 12.144531 1.894531 12.273438 2.003906 12.347656 2.089844 C 12.464844 2.222656 12.511719 2.300781 12.632812 2.550781 C 12.648438 2.578125 12.664062 2.59375 12.667969 2.589844 C 12.699219 2.558594 12.46875 2.183594 12.332031 2.042969 C 12.171875 1.875 11.890625 1.671875 11.890625 1.71875 M 9.953125 2.675781 C 9.894531 2.851562 9.894531 3.390625 9.957031 3.554688 C 9.992188 3.644531 10.003906 3.660156 10.003906 3.621094 C 10.003906 3.585938 9.988281 3.519531 9.96875 3.464844 C 9.921875 3.335938 9.921875 2.886719 9.972656 2.75 C 9.992188 2.691406 10.003906 2.625 10 2.601562 C 9.996094 2.570312 9.980469 2.597656 9.953125 2.675781 M 12.683594 2.710938 C 12.6875 2.753906 12.707031 2.863281 12.722656 2.949219 C 12.746094 3.082031 12.746094 3.144531 12.71875 3.285156 C 12.675781 3.550781 12.667969 3.609375 12.699219 3.511719 C 12.777344 3.257812 12.78125 2.9375 12.707031 2.734375 C 12.675781 2.640625 12.671875 2.640625 12.683594 2.710938 M 12.632812 3.671875 C 12.617188 3.699219 12.59375 3.75 12.582031 3.785156 C 12.570312 3.816406 12.523438 3.902344 12.476562 3.96875 C 12.390625 4.097656 12.371094 4.148438 12.441406 4.0625 C 12.507812 3.980469 12.675781 3.664062 12.667969 3.640625 C 12.664062 3.628906 12.648438 3.640625 12.632812 3.671875 M 10.003906 3.714844 C 10.003906 3.734375 10.019531 3.78125 10.039062 3.816406 C 10.054688 3.847656 10.09375 3.921875 10.121094 3.980469 C 10.175781 4.089844 10.28125 4.226562 10.28125 4.1875 C 10.28125 4.175781 10.257812 4.132812 10.230469 4.089844 C 10.203125 4.046875 10.140625 3.9375 10.09375 3.84375 C 10.046875 3.753906 10.007812 3.695312 10.003906 3.714844 M 15.035156 4.832031 C 15.023438 4.855469 15.035156 4.867188 15.078125 4.867188 C 15.113281 4.867188 15.132812 4.855469 15.132812 4.832031 C 15.132812 4.816406 15.113281 4.800781 15.089844 4.800781 C 15.066406 4.800781 15.039062 4.816406 15.035156 4.832031 M 19.792969 7.554688 C 19.804688 7.578125 19.800781 7.582031 19.773438 7.570312 C 19.746094 7.5625 19.738281 7.566406 19.75 7.589844 C 19.757812 7.609375 19.769531 7.621094 19.78125 7.621094 C 19.8125 7.621094 19.824219 7.558594 19.796875 7.542969 C 19.78125 7.53125 19.78125 7.535156 19.792969 7.554688 M 4.40625 7.800781 C 4.414062 7.8125 4.402344 7.820312 4.382812 7.820312 C 4.363281 7.820312 4.347656 7.832031 4.347656 7.84375 C 4.347656 7.855469 4.320312 7.863281 4.289062 7.855469 C 4.25 7.851562 4.230469 7.855469 4.238281 7.875 C 4.246094 7.886719 4.261719 7.898438 4.277344 7.894531 C 4.292969 7.890625 4.296875 7.898438 4.289062 7.910156 C 4.28125 7.921875 4.261719 7.933594 4.242188 7.933594 C 4.222656 7.933594 4.210938 7.949219 4.210938 7.964844 C 4.210938 7.984375 4.199219 7.996094 4.183594 7.996094 C 4.167969 7.992188 4.15625 8.007812 4.152344 8.027344 C 4.148438 8.050781 4.152344 8.0625 4.164062 8.054688 C 4.175781 8.046875 4.1875 8.050781 4.1875 8.066406 C 4.1875 8.078125 4.175781 8.089844 4.164062 8.089844 C 4.148438 8.089844 4.140625 8.109375 4.140625 8.132812 C 4.140625 8.15625 4.15625 8.179688 4.175781 8.179688 C 4.199219 8.179688 4.210938 8.15625 4.210938 8.101562 C 4.210938 8.035156 4.21875 8.023438 4.253906 8.023438 C 4.285156 8.023438 4.300781 8.007812 4.300781 7.976562 C 4.300781 7.925781 4.371094 7.917969 4.476562 7.957031 L 4.539062 7.980469 L 4.484375 7.925781 C 4.453125 7.898438 4.410156 7.867188 4.394531 7.859375 C 4.371094 7.851562 4.375 7.847656 4.410156 7.847656 C 4.460938 7.84375 4.460938 7.777344 4.414062 7.777344 C 4.398438 7.777344 4.398438 7.789062 4.40625 7.800781 M 4.488281 8.023438 C 4.503906 8.058594 4.503906 8.066406 4.488281 8.058594 C 4.46875 8.046875 4.460938 8.070312 4.464844 8.125 L 4.464844 8.210938 L 4.496094 8.144531 C 4.539062 8.054688 4.539062 8.007812 4.496094 7.992188 C 4.46875 7.980469 4.464844 7.988281 4.488281 8.023438 M 5.246094 8.929688 C 5.183594 8.976562 5.214844 9 5.347656 9 C 5.449219 9 5.453125 9.050781 5.359375 9.144531 C 5.320312 9.179688 5.289062 9.226562 5.289062 9.25 C 5.289062 9.28125 5.273438 9.289062 5.210938 9.289062 C 5.152344 9.289062 5.132812 9.300781 5.121094 9.332031 C 5.117188 9.359375 5.09375 9.378906 5.074219 9.378906 C 5.03125 9.378906 5.023438 9.433594 5.0625 9.457031 C 5.074219 9.464844 5.09375 9.449219 5.097656 9.425781 C 5.113281 9.375 5.175781 9.359375 5.175781 9.402344 C 5.175781 9.417969 5.199219 9.402344 5.230469 9.371094 C 5.261719 9.339844 5.292969 9.320312 5.304688 9.328125 C 5.3125 9.335938 5.3125 9.332031 5.304688 9.316406 C 5.292969 9.296875 5.320312 9.289062 5.421875 9.289062 C 5.527344 9.289062 5.570312 9.277344 5.613281 9.246094 C 5.640625 9.21875 5.671875 9.199219 5.679688 9.199219 C 5.6875 9.199219 5.695312 9.15625 5.695312 9.101562 C 5.695312 9.007812 5.683594 8.988281 5.628906 8.996094 C 5.621094 9 5.613281 8.992188 5.613281 8.980469 C 5.613281 8.886719 5.351562 8.851562 5.246094 8.929688 M 18.25 10.777344 C 18.195312 10.789062 18.191406 10.796875 18.222656 10.808594 C 18.3125 10.839844 18.328125 10.839844 18.339844 10.808594 C 18.355469 10.769531 18.332031 10.761719 18.25 10.777344 M 3.5 15.328125 C 3.460938 15.339844 3.464844 15.523438 3.507812 15.5625 C 3.539062 15.59375 3.542969 15.785156 3.542969 17.011719 C 3.542969 18.261719 3.539062 18.425781 3.507812 18.414062 C 3.476562 18.402344 3.472656 18.433594 3.472656 18.597656 C 3.472656 18.757812 3.480469 18.792969 3.507812 18.792969 C 3.527344 18.792969 3.542969 18.785156 3.542969 18.773438 C 3.542969 18.765625 3.5625 18.734375 3.589844 18.707031 C 3.617188 18.679688 3.648438 18.628906 3.65625 18.589844 L 3.671875 18.523438 L 4.3125 18.5 L 4.3125 15.523438 L 3.992188 15.511719 L 3.667969 15.5 L 3.65625 15.421875 C 3.644531 15.347656 3.574219 15.304688 3.5 15.328125 M 5.078125 15.542969 C 5.035156 15.574219 5.023438 18.4375 5.066406 18.480469 C 5.105469 18.519531 15.464844 18.488281 15.496094 18.449219 C 15.539062 18.398438 15.539062 15.578125 15.496094 15.539062 C 15.453125 15.496094 8.960938 15.5 8.925781 15.542969 C 8.90625 15.566406 8.898438 15.796875 8.898438 16.414062 C 8.902344 17.378906 8.890625 17.414062 8.675781 17.277344 C 8.640625 17.253906 8.554688 17.207031 8.488281 17.167969 C 8.417969 17.132812 8.296875 17.070312 8.222656 17.027344 C 8.148438 16.988281 8.046875 16.9375 8 16.917969 C 7.949219 16.898438 7.910156 16.875 7.910156 16.863281 C 7.910156 16.855469 7.882812 16.839844 7.84375 16.832031 C 7.808594 16.824219 7.765625 16.804688 7.75 16.789062 C 7.734375 16.769531 7.710938 16.753906 7.695312 16.753906 C 7.679688 16.753906 7.640625 16.734375 7.605469 16.710938 C 7.539062 16.660156 7.445312 16.652344 7.40625 16.699219 C 7.394531 16.714844 7.355469 16.734375 7.320312 16.742188 C 7.289062 16.75 7.234375 16.777344 7.203125 16.800781 C 7.171875 16.824219 7.128906 16.84375 7.109375 16.84375 C 7.089844 16.84375 7.046875 16.863281 7.015625 16.890625 C 6.984375 16.914062 6.949219 16.933594 6.941406 16.933594 C 6.929688 16.933594 6.765625 17.019531 6.578125 17.121094 C 6.386719 17.226562 6.222656 17.3125 6.214844 17.3125 C 6.203125 17.3125 6.179688 17.328125 6.164062 17.34375 C 6.09375 17.425781 6.085938 17.335938 6.09375 16.453125 C 6.097656 15.796875 6.089844 15.566406 6.070312 15.542969 C 6.03125 15.496094 5.136719 15.496094 5.078125 15.542969 M 16.273438 15.53125 C 16.261719 15.546875 16.253906 17.289062 16.261719 18.449219 C 16.261719 18.546875 16.851562 18.488281 17.066406 18.367188 C 17.472656 18.148438 17.617188 17.792969 17.617188 17.019531 C 17.617188 16.128906 17.480469 15.84375 16.917969 15.582031 C 16.785156 15.519531 16.304688 15.480469 16.273438 15.53125 M 19.03125 19.210938 C 19.019531 19.238281 18.964844 19.246094 18.699219 19.246094 C 18.40625 19.246094 18.375 19.25 18.355469 19.289062 C 18.328125 19.332031 18.320312 22.125 18.34375 22.214844 C 18.359375 22.265625 18.371094 22.265625 18.695312 22.273438 L 19.03125 22.277344 L 19.042969 22.355469 C 19.066406 22.519531 19.109375 22.449219 19.125 22.214844 C 19.160156 21.667969 19.128906 19.191406 19.085938 19.183594 C 19.0625 19.179688 19.039062 19.191406 19.03125 19.210938 M 12.109375 19.261719 C 7.515625 19.265625 7.1875 19.269531 7.160156 19.304688 C 7.113281 19.363281 7.121094 19.910156 7.164062 19.972656 L 7.203125 20.023438 L 10.460938 20.023438 C 12.964844 20.023438 13.726562 20.027344 13.75 20.050781 C 13.800781 20.097656 13.785156 20.726562 13.734375 20.753906 C 13.703125 20.769531 12.632812 20.777344 10.429688 20.777344 L 7.175781 20.777344 L 7.152344 20.839844 C 7.113281 20.933594 7.132812 22.183594 7.171875 22.230469 C 7.226562 22.289062 17.546875 22.285156 17.601562 22.226562 C 17.65625 22.167969 17.660156 21.597656 17.605469 21.546875 C 17.574219 21.515625 17.386719 21.511719 15.882812 21.511719 C 14.472656 21.511719 14.191406 21.507812 14.171875 21.480469 C 14.152344 21.460938 14.144531 21.34375 14.148438 21.121094 L 14.15625 20.789062 L 15.871094 20.777344 C 16.8125 20.773438 17.597656 20.757812 17.613281 20.75 C 17.632812 20.734375 17.640625 20.5625 17.640625 20.007812 L 17.640625 19.289062 L 17.582031 19.265625 C 17.550781 19.253906 17.414062 19.246094 17.277344 19.25 C 17.140625 19.253906 14.816406 19.257812 12.109375 19.261719 M 5.683594 19.359375 C 5.496094 19.449219 5.175781 19.746094 5.175781 19.828125 C 5.175781 19.84375 5.160156 19.886719 5.136719 19.921875 C 5.042969 20.101562 5.003906 20.917969 5.070312 21.34375 C 5.160156 21.925781 5.59375 22.265625 6.234375 22.265625 C 6.386719 22.265625 6.394531 22.261719 6.417969 22.210938 C 6.441406 22.148438 6.449219 19.402344 6.425781 19.316406 C 6.398438 19.214844 5.925781 19.242188 5.683594 19.359375 "/>
<path style=" stroke:none;fill-rule:evenodd;fill:rgb(33.333333%,67.45098%,27.058824%);fill-opacity:1;" d="M 17.226562 9.746094 C 17.226562 9.765625 17.207031 9.789062 17.179688 9.792969 C 17.144531 9.800781 17.136719 9.824219 17.136719 9.878906 C 17.136719 9.929688 17.125 9.957031 17.101562 9.957031 C 17.066406 9.957031 17.042969 10.003906 17.042969 10.078125 C 17.042969 10.105469 17.027344 10.140625 17.007812 10.15625 C 16.988281 10.171875 16.972656 10.21875 16.972656 10.269531 C 16.972656 10.339844 16.964844 10.355469 16.929688 10.355469 C 16.902344 10.355469 16.882812 10.371094 16.882812 10.390625 C 16.882812 10.40625 16.867188 10.421875 16.84375 10.421875 C 16.824219 10.421875 16.804688 10.441406 16.796875 10.464844 C 16.789062 10.492188 16.769531 10.511719 16.753906 10.511719 C 16.734375 10.511719 16.722656 10.53125 16.722656 10.554688 C 16.722656 10.589844 16.707031 10.601562 16.640625 10.601562 C 16.585938 10.601562 16.558594 10.609375 16.558594 10.632812 C 16.558594 10.652344 16.542969 10.667969 16.523438 10.667969 C 16.503906 10.667969 16.480469 10.6875 16.476562 10.710938 C 16.464844 10.746094 16.441406 10.753906 16.367188 10.753906 C 16.289062 10.753906 16.257812 10.769531 16.210938 10.820312 C 16.117188 10.925781 16.101562 11.066406 16.183594 11.066406 C 16.199219 11.066406 16.214844 11.085938 16.214844 11.105469 C 16.214844 11.167969 16.335938 11.289062 16.402344 11.289062 C 16.492188 11.289062 16.558594 11.3125 16.558594 11.347656 C 16.558594 11.363281 16.574219 11.378906 16.59375 11.378906 C 16.609375 11.378906 16.628906 11.398438 16.636719 11.421875 C 16.640625 11.445312 16.664062 11.464844 16.683594 11.464844 C 16.703125 11.464844 16.722656 11.476562 16.722656 11.492188 C 16.722656 11.527344 16.816406 11.621094 16.851562 11.621094 C 16.867188 11.621094 16.882812 11.640625 16.882812 11.667969 C 16.882812 11.695312 16.898438 11.710938 16.929688 11.710938 C 16.964844 11.710938 16.972656 11.726562 16.972656 11.789062 C 16.972656 11.84375 16.984375 11.867188 17.007812 11.867188 C 17.035156 11.867188 17.042969 11.890625 17.042969 11.957031 C 17.042969 12.015625 17.058594 12.054688 17.089844 12.082031 C 17.117188 12.105469 17.136719 12.148438 17.136719 12.195312 C 17.136719 12.25 17.144531 12.265625 17.179688 12.265625 C 17.203125 12.265625 17.226562 12.285156 17.234375 12.3125 C 17.25 12.371094 17.34375 12.371094 17.359375 12.3125 C 17.363281 12.289062 17.390625 12.265625 17.414062 12.257812 C 17.449219 12.25 17.457031 12.226562 17.457031 12.132812 C 17.457031 12.050781 17.46875 12.007812 17.503906 11.972656 C 17.527344 11.945312 17.550781 11.898438 17.550781 11.863281 C 17.550781 11.832031 17.566406 11.800781 17.582031 11.792969 C 17.605469 11.785156 17.617188 11.75 17.617188 11.699219 C 17.617188 11.636719 17.625 11.621094 17.664062 11.621094 C 17.691406 11.621094 17.710938 11.605469 17.710938 11.589844 C 17.710938 11.570312 17.726562 11.554688 17.742188 11.554688 C 17.761719 11.554688 17.78125 11.535156 17.789062 11.511719 C 17.796875 11.488281 17.820312 11.464844 17.835938 11.464844 C 17.851562 11.464844 17.871094 11.445312 17.878906 11.421875 C 17.886719 11.390625 17.910156 11.378906 17.949219 11.378906 C 17.984375 11.378906 18.015625 11.363281 18.023438 11.347656 C 18.035156 11.316406 18.15625 11.277344 18.207031 11.285156 C 18.222656 11.289062 18.242188 11.277344 18.253906 11.265625 C 18.261719 11.246094 18.257812 11.242188 18.242188 11.253906 C 18.230469 11.261719 18.214844 11.257812 18.207031 11.25 C 18.203125 11.238281 18.214844 11.230469 18.238281 11.226562 C 18.277344 11.226562 18.378906 11.148438 18.378906 11.121094 C 18.378906 11.117188 18.378906 11.101562 18.378906 11.089844 C 18.378906 11.078125 18.390625 11.066406 18.410156 11.066406 C 18.453125 11.066406 18.476562 10.996094 18.449219 10.929688 C 18.425781 10.878906 18.332031 10.785156 18.332031 10.816406 C 18.332031 10.835938 18.183594 10.832031 18.148438 10.8125 C 18.132812 10.804688 18.128906 10.789062 18.132812 10.78125 C 18.15625 10.746094 18.074219 10.667969 18.019531 10.667969 C 17.984375 10.667969 17.964844 10.652344 17.964844 10.632812 C 17.964844 10.613281 17.941406 10.601562 17.917969 10.601562 C 17.886719 10.601562 17.871094 10.585938 17.871094 10.554688 C 17.871094 10.53125 17.855469 10.511719 17.835938 10.511719 C 17.816406 10.511719 17.800781 10.496094 17.800781 10.480469 C 17.800781 10.460938 17.78125 10.441406 17.757812 10.433594 C 17.730469 10.425781 17.710938 10.40625 17.710938 10.386719 C 17.710938 10.371094 17.6875 10.355469 17.664062 10.355469 C 17.625 10.355469 17.617188 10.339844 17.617188 10.269531 C 17.617188 10.210938 17.601562 10.171875 17.570312 10.144531 C 17.546875 10.121094 17.527344 10.09375 17.527344 10.078125 C 17.527344 10.0625 17.511719 10.042969 17.492188 10.035156 C 17.46875 10.027344 17.457031 9.992188 17.457031 9.914062 C 17.457031 9.824219 17.449219 9.800781 17.410156 9.789062 C 17.386719 9.78125 17.363281 9.761719 17.363281 9.742188 C 17.363281 9.722656 17.339844 9.710938 17.296875 9.710938 C 17.25 9.710938 17.226562 9.722656 17.226562 9.746094 M 18.199219 10.769531 C 18.222656 10.777344 18.257812 10.777344 18.277344 10.769531 C 18.300781 10.765625 18.285156 10.761719 18.238281 10.761719 C 18.195312 10.761719 18.175781 10.765625 18.199219 10.769531 M 18.078125 11.25 C 18.078125 11.265625 18.085938 11.269531 18.09375 11.253906 C 18.117188 11.226562 18.171875 11.21875 18.171875 11.246094 C 18.171875 11.257812 18.15625 11.265625 18.140625 11.269531 C 18.125 11.269531 18.097656 11.273438 18.074219 11.277344 C 18.054688 11.28125 18.039062 11.269531 18.039062 11.253906 C 18.039062 11.234375 18.046875 11.222656 18.058594 11.222656 C 18.070312 11.222656 18.078125 11.234375 18.078125 11.25 M 18.214844 18.445312 C 18.214844 18.476562 18.199219 18.488281 18.164062 18.488281 C 18.050781 18.488281 17.9375 18.546875 17.867188 18.644531 C 17.796875 18.738281 17.769531 18.765625 17.605469 18.910156 C 17.5 19 17.238281 19.136719 17.105469 19.164062 C 16.886719 19.210938 16.945312 19.246094 17.246094 19.246094 C 17.398438 19.246094 17.550781 19.253906 17.582031 19.265625 L 17.640625 19.289062 L 17.640625 20.007812 C 17.640625 20.5625 17.632812 20.734375 17.613281 20.75 C 17.597656 20.757812 16.8125 20.773438 15.871094 20.777344 L 14.15625 20.789062 L 14.148438 21.121094 C 14.144531 21.34375 14.152344 21.460938 14.171875 21.480469 C 14.191406 21.507812 14.472656 21.511719 15.882812 21.511719 C 17.386719 21.511719 17.574219 21.515625 17.605469 21.546875 C 17.664062 21.601562 17.65625 22.179688 17.597656 22.230469 C 17.535156 22.285156 7.222656 22.285156 7.171875 22.230469 C 7.132812 22.183594 7.113281 20.933594 7.152344 20.839844 L 7.175781 20.777344 L 10.429688 20.777344 C 12.632812 20.777344 13.703125 20.769531 13.734375 20.753906 C 13.785156 20.726562 13.800781 20.097656 13.75 20.050781 C 13.726562 20.027344 12.964844 20.023438 10.460938 20.023438 L 7.203125 20.023438 L 7.164062 19.972656 C 7.136719 19.933594 7.128906 19.855469 7.128906 19.597656 C 7.128906 19.277344 7.128906 19.273438 7.078125 19.257812 C 7.011719 19.242188 6.601562 19.242188 6.511719 19.257812 L 6.441406 19.273438 L 6.441406 20.710938 C 6.441406 22.378906 6.453125 22.265625 6.234375 22.265625 C 5.59375 22.265625 5.160156 21.925781 5.070312 21.34375 C 5.003906 20.917969 5.042969 20.101562 5.136719 19.921875 C 5.160156 19.886719 5.175781 19.84375 5.175781 19.828125 C 5.175781 19.753906 5.480469 19.464844 5.652344 19.371094 L 5.828125 19.28125 L 5.738281 19.261719 C 5.558594 19.222656 4.726562 19.25 4.675781 19.292969 C 4.652344 19.316406 4.601562 19.332031 4.5625 19.332031 C 4.480469 19.332031 4.4375 19.371094 4.457031 19.417969 C 4.464844 19.441406 4.460938 19.449219 4.433594 19.4375 C 4.394531 19.425781 4.371094 19.5 4.371094 19.632812 C 4.371094 19.675781 4.359375 19.710938 4.34375 19.714844 C 4.332031 19.71875 4.3125 19.769531 4.308594 19.828125 C 4.296875 19.910156 4.285156 19.933594 4.253906 19.933594 C 4.183594 19.933594 4.183594 21.597656 4.253906 21.667969 C 4.289062 21.699219 4.300781 21.742188 4.300781 21.8125 C 4.300781 21.878906 4.3125 21.917969 4.335938 21.925781 C 4.355469 21.933594 4.371094 21.964844 4.371094 22.003906 C 4.371094 22.050781 4.382812 22.074219 4.414062 22.082031 C 4.449219 22.089844 4.460938 22.113281 4.460938 22.171875 C 4.460938 22.226562 4.472656 22.25 4.503906 22.257812 C 4.527344 22.265625 4.558594 22.296875 4.574219 22.328125 C 4.632812 22.453125 4.65625 22.488281 4.6875 22.488281 C 4.703125 22.488281 4.714844 22.503906 4.714844 22.523438 C 4.714844 22.542969 4.734375 22.566406 4.761719 22.570312 C 4.785156 22.578125 4.808594 22.589844 4.808594 22.601562 C 4.808594 22.628906 4.914062 22.734375 4.941406 22.734375 C 4.957031 22.734375 4.96875 22.753906 4.96875 22.777344 C 4.96875 22.800781 4.980469 22.820312 4.996094 22.820312 C 5.011719 22.820312 5.042969 22.84375 5.066406 22.867188 C 5.085938 22.890625 5.132812 22.910156 5.164062 22.910156 C 5.199219 22.910156 5.222656 22.921875 5.222656 22.945312 C 5.222656 22.96875 5.25 22.976562 5.347656 22.976562 C 5.417969 22.976562 5.472656 22.988281 5.472656 23 C 5.472656 23.015625 7.765625 23.023438 12.304688 23.023438 L 19.136719 23.023438 L 19.136719 22.734375 C 19.136719 22.554688 19.128906 22.445312 19.113281 22.445312 C 19.101562 22.445312 19.082031 22.445312 19.074219 22.445312 C 19.0625 22.445312 19.050781 22.40625 19.042969 22.363281 L 19.03125 22.277344 L 18.695312 22.273438 C 18.371094 22.265625 18.359375 22.265625 18.34375 22.214844 C 18.320312 22.125 18.328125 19.332031 18.355469 19.289062 C 18.375 19.25 18.40625 19.246094 18.699219 19.246094 C 18.902344 19.246094 19.019531 19.234375 19.019531 19.222656 C 19.019531 19.210938 19.046875 19.1875 19.078125 19.179688 L 19.136719 19.15625 L 19.136719 18.832031 C 19.136719 18.53125 19.132812 18.507812 19.09375 18.496094 C 19.066406 18.488281 19.042969 18.464844 19.035156 18.441406 C 19.019531 18.375 18.214844 18.375 18.214844 18.445312 "/>
<path style=" stroke:none;fill-rule:evenodd;fill:rgb(96.862745%,85.490196%,39.215686%);fill-opacity:1;" d="M 7.796875 0.0234375 C 7.796875 0.0351562 7.78125 0.0429688 7.765625 0.0429688 C 7.722656 0.0429688 7.703125 0.09375 7.703125 0.203125 L 7.703125 0.289062 L 6.320312 0.292969 C 5.558594 0.292969 4.917969 0.296875 4.898438 0.300781 C 4.878906 0.300781 4.851562 0.304688 4.835938 0.308594 C 4.816406 0.308594 4.8125 0.320312 4.820312 0.332031 C 4.828125 0.34375 4.804688 0.367188 4.773438 0.382812 C 4.742188 0.394531 4.71875 0.414062 4.726562 0.421875 C 4.730469 0.429688 4.695312 0.480469 4.644531 0.53125 L 4.554688 0.628906 L 4.554688 1.859375 C 4.554688 2.9375 4.558594 3.089844 4.589844 3.089844 C 4.609375 3.089844 4.621094 3.109375 4.621094 3.144531 C 4.621094 3.222656 4.625 3.230469 4.652344 3.261719 C 4.664062 3.277344 4.664062 3.289062 4.65625 3.289062 C 4.644531 3.289062 4.652344 3.300781 4.675781 3.3125 C 4.707031 3.332031 4.714844 3.363281 4.714844 3.464844 C 4.714844 3.617188 4.730469 3.667969 4.773438 3.667969 C 4.796875 3.667969 4.808594 3.691406 4.808594 3.734375 C 4.808594 3.773438 4.820312 3.808594 4.839844 3.8125 C 4.863281 3.820312 4.875 3.855469 4.875 3.898438 C 4.875 3.972656 4.921875 4.035156 4.957031 4.003906 C 4.96875 3.996094 4.96875 4 4.960938 4.015625 C 4.949219 4.03125 4.964844 4.0625 4.988281 4.085938 C 5.015625 4.113281 5.042969 4.164062 5.050781 4.207031 C 5.054688 4.246094 5.078125 4.289062 5.101562 4.308594 C 5.121094 4.324219 5.136719 4.347656 5.132812 4.355469 C 5.132812 4.367188 5.148438 4.378906 5.175781 4.378906 C 5.199219 4.378906 5.222656 4.390625 5.222656 4.402344 C 5.222656 4.433594 5.328125 4.535156 5.359375 4.535156 C 5.371094 4.535156 5.382812 4.554688 5.382812 4.578125 C 5.382812 4.605469 5.398438 4.621094 5.429688 4.621094 C 5.457031 4.621094 5.472656 4.636719 5.472656 4.667969 C 5.472656 4.691406 5.488281 4.710938 5.507812 4.710938 C 5.527344 4.710938 5.542969 4.730469 5.542969 4.757812 C 5.542969 4.785156 5.5625 4.808594 5.582031 4.816406 C 5.621094 4.824219 5.726562 4.960938 5.726562 5 C 5.726562 5.011719 5.75 5.023438 5.773438 5.023438 C 5.800781 5.023438 5.816406 5.03125 5.808594 5.042969 C 5.792969 5.066406 5.851562 5.117188 5.871094 5.097656 C 5.882812 5.089844 5.886719 5.101562 5.886719 5.128906 C 5.886719 5.15625 5.90625 5.179688 5.933594 5.1875 C 5.960938 5.195312 5.972656 5.214844 5.964844 5.226562 C 5.957031 5.238281 5.972656 5.253906 6 5.257812 C 6.027344 5.265625 6.050781 5.285156 6.050781 5.304688 C 6.050781 5.324219 6.070312 5.34375 6.09375 5.347656 C 6.121094 5.355469 6.140625 5.375 6.140625 5.390625 C 6.140625 5.40625 6.15625 5.421875 6.175781 5.429688 C 6.195312 5.4375 6.210938 5.457031 6.210938 5.472656 C 6.210938 5.488281 6.230469 5.511719 6.257812 5.527344 C 6.300781 5.554688 6.300781 5.578125 6.300781 6.445312 L 6.300781 7.335938 L 6.359375 7.355469 C 6.394531 7.367188 6.414062 7.386719 6.40625 7.398438 C 6.398438 7.414062 6.398438 7.421875 6.410156 7.421875 C 6.640625 7.433594 7.152344 7.429688 7.152344 7.414062 C 7.152344 7.40625 7.164062 7.40625 7.183594 7.414062 C 7.199219 7.421875 7.203125 7.421875 7.195312 7.410156 C 7.171875 7.386719 7.222656 7.332031 7.25 7.347656 C 7.265625 7.355469 7.269531 7.351562 7.257812 7.335938 C 7.25 7.324219 7.253906 7.3125 7.265625 7.3125 C 7.285156 7.3125 7.289062 7.089844 7.289062 6.609375 L 7.289062 5.910156 L 7.957031 5.910156 L 7.960938 5.972656 C 7.960938 6.003906 7.960938 6.039062 7.960938 6.050781 C 7.960938 6.058594 7.980469 6.066406 8.003906 6.066406 C 8.042969 6.066406 8.050781 6.082031 8.050781 6.144531 C 8.050781 6.1875 8.0625 6.226562 8.082031 6.238281 C 8.101562 6.246094 8.121094 6.289062 8.125 6.328125 C 8.132812 6.371094 8.15625 6.421875 8.175781 6.441406 C 8.195312 6.464844 8.210938 6.503906 8.210938 6.535156 C 8.210938 6.566406 8.230469 6.605469 8.257812 6.621094 C 8.28125 6.640625 8.304688 6.675781 8.304688 6.707031 C 8.304688 6.734375 8.339844 6.789062 8.382812 6.835938 C 8.4375 6.890625 8.464844 6.933594 8.464844 6.976562 C 8.464844 7.03125 8.472656 7.042969 8.511719 7.042969 C 8.535156 7.042969 8.554688 7.058594 8.554688 7.078125 C 8.554688 7.09375 8.59375 7.148438 8.636719 7.191406 C 8.6875 7.246094 8.71875 7.300781 8.71875 7.339844 C 8.71875 7.378906 8.742188 7.425781 8.796875 7.476562 C 8.839844 7.519531 8.878906 7.5625 8.878906 7.574219 C 8.878906 7.589844 8.898438 7.601562 8.925781 7.601562 C 8.953125 7.601562 8.96875 7.613281 8.96875 7.644531 C 8.96875 7.671875 8.984375 7.6875 9.007812 7.6875 C 9.027344 7.6875 9.046875 7.707031 9.054688 7.734375 C 9.0625 7.757812 9.078125 7.769531 9.089844 7.765625 C 9.101562 7.757812 9.117188 7.773438 9.125 7.796875 C 9.132812 7.824219 9.15625 7.84375 9.179688 7.84375 C 9.207031 7.84375 9.222656 7.859375 9.222656 7.886719 C 9.222656 7.929688 9.320312 7.992188 9.359375 7.96875 C 9.371094 7.960938 9.382812 7.96875 9.382812 7.988281 C 9.382812 8.007812 9.40625 8.039062 9.429688 8.0625 C 9.457031 8.082031 9.476562 8.113281 9.476562 8.128906 C 9.476562 8.144531 9.492188 8.15625 9.511719 8.15625 C 9.527344 8.15625 9.558594 8.175781 9.574219 8.199219 C 9.589844 8.222656 9.625 8.246094 9.652344 8.246094 C 9.683594 8.246094 9.707031 8.261719 9.71875 8.289062 C 9.726562 8.3125 9.746094 8.332031 9.765625 8.332031 C 9.78125 8.332031 9.804688 8.351562 9.816406 8.371094 C 9.828125 8.390625 9.863281 8.410156 9.894531 8.414062 C 9.921875 8.414062 9.957031 8.417969 9.964844 8.421875 C 9.972656 8.421875 9.980469 8.433594 9.976562 8.449219 C 9.972656 8.464844 10 8.480469 10.042969 8.484375 C 10.09375 8.488281 10.121094 8.507812 10.132812 8.535156 C 10.140625 8.558594 10.160156 8.578125 10.171875 8.574219 C 10.246094 8.566406 10.304688 8.582031 10.304688 8.609375 C 10.304688 8.625 10.324219 8.644531 10.351562 8.652344 C 10.378906 8.65625 10.394531 8.671875 10.386719 8.683594 C 10.378906 8.695312 10.394531 8.722656 10.417969 8.746094 C 10.492188 8.808594 10.492188 12.816406 10.417969 12.863281 C 10.394531 12.878906 10.371094 12.914062 10.371094 12.945312 C 10.371094 12.976562 10.363281 13 10.347656 13 C 10.335938 13 10.320312 13.015625 10.3125 13.039062 C 10.300781 13.058594 10.261719 13.105469 10.21875 13.144531 C 10.175781 13.179688 10.144531 13.222656 10.144531 13.238281 C 10.144531 13.253906 10.113281 13.265625 10.074219 13.265625 C 10.03125 13.265625 10 13.28125 9.980469 13.3125 C 9.96875 13.335938 9.9375 13.355469 9.914062 13.355469 C 9.871094 13.355469 9.796875 13.421875 9.796875 13.460938 C 9.796875 13.480469 9.71875 13.488281 9.519531 13.488281 C 9.261719 13.488281 9.242188 13.492188 9.230469 13.535156 C 9.21875 13.566406 9.199219 13.578125 9.140625 13.578125 C 9.097656 13.578125 9.0625 13.589844 9.054688 13.609375 C 9.046875 13.628906 9.011719 13.644531 8.972656 13.644531 C 8.925781 13.644531 8.898438 13.65625 8.890625 13.6875 C 8.882812 13.714844 8.867188 13.734375 8.855469 13.734375 C 8.828125 13.734375 8.71875 13.839844 8.71875 13.863281 C 8.71875 13.875 8.695312 13.890625 8.671875 13.898438 C 8.644531 13.90625 8.625 13.925781 8.625 13.945312 C 8.625 13.960938 8.609375 13.980469 8.589844 13.984375 C 8.566406 13.992188 8.554688 14.027344 8.554688 14.082031 C 8.554688 14.140625 8.542969 14.175781 8.511719 14.199219 C 8.476562 14.222656 8.464844 14.257812 8.464844 14.332031 C 8.464844 14.414062 8.417969 14.554688 8.417969 14.476562 C 8.417969 14.464844 8.394531 14.488281 8.371094 14.53125 C 8.320312 14.609375 8.335938 14.644531 8.421875 14.644531 C 8.445312 14.644531 8.476562 14.667969 8.492188 14.699219 L 8.523438 14.757812 L 11.28125 14.757812 C 14.046875 14.753906 14.097656 14.753906 14.097656 14.679688 C 14.097656 14.667969 14.121094 14.640625 14.144531 14.625 C 14.171875 14.609375 14.1875 14.589844 14.179688 14.578125 C 14.171875 14.566406 14.179688 14.550781 14.191406 14.542969 C 14.234375 14.519531 14.210938 14.238281 14.164062 14.199219 C 14.144531 14.183594 14.121094 14.136719 14.117188 14.101562 C 14.113281 14.0625 14.085938 14.007812 14.058594 13.976562 C 14.03125 13.949219 14.007812 13.914062 14.007812 13.90625 C 14.007812 13.894531 13.996094 13.890625 13.984375 13.898438 C 13.972656 13.90625 13.957031 13.890625 13.949219 13.867188 C 13.941406 13.84375 13.921875 13.820312 13.902344 13.8125 C 13.882812 13.808594 13.867188 13.785156 13.867188 13.765625 C 13.867188 13.75 13.855469 13.734375 13.835938 13.734375 C 13.816406 13.734375 13.789062 13.714844 13.777344 13.6875 C 13.761719 13.664062 13.746094 13.644531 13.734375 13.648438 C 13.671875 13.65625 13.617188 13.640625 13.617188 13.609375 C 13.617188 13.585938 13.585938 13.578125 13.484375 13.578125 C 13.414062 13.578125 13.363281 13.570312 13.371094 13.5625 C 13.417969 13.515625 13.324219 13.488281 13.105469 13.488281 C 12.972656 13.488281 12.878906 13.480469 12.878906 13.464844 C 12.878906 13.417969 12.785156 13.355469 12.707031 13.355469 C 12.652344 13.355469 12.621094 13.34375 12.605469 13.3125 C 12.589844 13.285156 12.554688 13.265625 12.527344 13.265625 C 12.476562 13.265625 12.390625 13.203125 12.433594 13.199219 C 12.445312 13.199219 12.429688 13.1875 12.402344 13.175781 C 12.375 13.167969 12.351562 13.140625 12.351562 13.121094 C 12.351562 13.105469 12.339844 13.089844 12.320312 13.09375 C 12.300781 13.097656 12.292969 13.058594 12.285156 12.972656 C 12.28125 12.878906 12.269531 12.84375 12.246094 12.84375 C 12.21875 12.84375 12.214844 12.5625 12.214844 10.746094 L 12.214844 8.644531 L 12.292969 8.644531 C 12.351562 8.644531 12.375 8.632812 12.375 8.609375 C 12.375 8.589844 12.398438 8.578125 12.445312 8.578125 C 12.496094 8.578125 12.519531 8.566406 12.527344 8.535156 C 12.535156 8.507812 12.554688 8.488281 12.570312 8.488281 C 12.589844 8.488281 12.613281 8.46875 12.625 8.445312 C 12.640625 8.421875 12.664062 8.40625 12.683594 8.414062 C 12.703125 8.421875 12.734375 8.40625 12.757812 8.378906 C 12.78125 8.355469 12.820312 8.332031 12.851562 8.332031 C 12.878906 8.332031 12.902344 8.324219 12.902344 8.308594 C 12.902344 8.296875 12.914062 8.292969 12.925781 8.300781 C 12.9375 8.308594 12.949219 8.300781 12.949219 8.28125 C 12.949219 8.261719 12.96875 8.242188 12.996094 8.234375 C 13.019531 8.226562 13.039062 8.203125 13.039062 8.1875 C 13.039062 8.160156 13.097656 8.144531 13.160156 8.152344 C 13.171875 8.152344 13.171875 8.140625 13.164062 8.121094 C 13.15625 8.101562 13.160156 8.089844 13.171875 8.089844 C 13.207031 8.097656 13.269531 8.0625 13.269531 8.035156 C 13.269531 8.019531 13.296875 7.984375 13.328125 7.957031 C 13.359375 7.929688 13.378906 7.894531 13.371094 7.882812 C 13.363281 7.871094 13.378906 7.859375 13.40625 7.851562 C 13.433594 7.84375 13.453125 7.820312 13.453125 7.796875 C 13.453125 7.765625 13.464844 7.753906 13.488281 7.761719 C 13.503906 7.769531 13.527344 7.75 13.542969 7.71875 C 13.558594 7.6875 13.582031 7.671875 13.59375 7.679688 C 13.605469 7.683594 13.617188 7.671875 13.617188 7.644531 C 13.617188 7.613281 13.632812 7.601562 13.660156 7.601562 C 13.6875 7.601562 13.707031 7.585938 13.707031 7.566406 C 13.707031 7.546875 13.722656 7.527344 13.742188 7.519531 C 13.761719 7.511719 13.78125 7.488281 13.789062 7.464844 C 13.796875 7.441406 13.8125 7.425781 13.820312 7.433594 C 13.832031 7.4375 13.851562 7.417969 13.867188 7.386719 C 13.878906 7.355469 13.902344 7.335938 13.914062 7.34375 C 13.925781 7.351562 13.9375 7.347656 13.9375 7.335938 C 13.9375 7.324219 13.960938 7.292969 13.984375 7.269531 C 14.011719 7.246094 14.035156 7.207031 14.035156 7.183594 C 14.039062 7.15625 14.046875 7.136719 14.050781 7.136719 C 14.101562 7.140625 14.121094 7.128906 14.121094 7.089844 C 14.121094 7.0625 14.136719 7.042969 14.15625 7.042969 C 14.175781 7.042969 14.195312 7.011719 14.203125 6.964844 C 14.210938 6.921875 14.234375 6.878906 14.25 6.875 C 14.269531 6.867188 14.28125 6.828125 14.28125 6.785156 C 14.28125 6.726562 14.292969 6.710938 14.328125 6.710938 C 14.355469 6.710938 14.375 6.703125 14.371094 6.695312 C 14.363281 6.660156 14.402344 6.601562 14.421875 6.613281 C 14.433594 6.621094 14.445312 6.609375 14.445312 6.589844 C 14.445312 6.527344 14.445312 6.523438 14.480469 6.472656 C 14.507812 6.433594 14.507812 6.421875 14.484375 6.421875 C 14.46875 6.421875 14.472656 6.410156 14.496094 6.398438 C 14.519531 6.382812 14.535156 6.347656 14.535156 6.308594 C 14.535156 6.257812 14.546875 6.238281 14.582031 6.230469 C 14.617188 6.21875 14.628906 6.199219 14.628906 6.140625 C 14.628906 6.089844 14.636719 6.066406 14.664062 6.066406 C 14.6875 6.066406 14.695312 6.042969 14.695312 5.988281 L 14.695312 5.910156 L 15.386719 5.910156 L 15.386719 6.625 C 15.386719 7.320312 15.386719 7.335938 15.433594 7.347656 C 15.457031 7.355469 15.480469 7.375 15.480469 7.390625 C 15.480469 7.410156 15.488281 7.421875 15.496094 7.421875 C 15.878906 7.441406 16.238281 7.429688 16.265625 7.394531 C 16.28125 7.375 16.308594 7.355469 16.324219 7.355469 C 16.34375 7.355469 16.347656 7.34375 16.339844 7.332031 C 16.332031 7.320312 16.339844 7.3125 16.351562 7.3125 C 16.367188 7.3125 16.375 7.039062 16.375 6.4375 L 16.375 5.5625 L 16.457031 5.480469 C 16.5 5.4375 16.535156 5.390625 16.535156 5.378906 C 16.535156 5.367188 16.558594 5.351562 16.582031 5.34375 C 16.609375 5.335938 16.628906 5.316406 16.628906 5.296875 C 16.628906 5.28125 16.644531 5.265625 16.664062 5.265625 C 16.683594 5.265625 16.699219 5.246094 16.699219 5.222656 C 16.699219 5.195312 16.707031 5.179688 16.71875 5.1875 C 16.730469 5.195312 16.757812 5.175781 16.78125 5.144531 C 16.800781 5.113281 16.828125 5.09375 16.839844 5.101562 C 16.851562 5.109375 16.859375 5.101562 16.859375 5.089844 C 16.859375 5.074219 16.894531 5.027344 16.941406 4.980469 C 16.988281 4.9375 17.035156 4.875 17.046875 4.847656 C 17.058594 4.820312 17.078125 4.804688 17.089844 4.8125 C 17.101562 4.820312 17.113281 4.804688 17.113281 4.777344 C 17.113281 4.753906 17.132812 4.722656 17.15625 4.707031 C 17.183594 4.691406 17.203125 4.664062 17.203125 4.648438 C 17.203125 4.636719 17.226562 4.621094 17.25 4.621094 C 17.273438 4.621094 17.296875 4.609375 17.296875 4.589844 C 17.296875 4.574219 17.3125 4.554688 17.332031 4.546875 C 17.347656 4.539062 17.363281 4.519531 17.363281 4.5 C 17.363281 4.480469 17.386719 4.464844 17.410156 4.464844 C 17.441406 4.464844 17.457031 4.453125 17.457031 4.421875 C 17.457031 4.398438 17.46875 4.378906 17.480469 4.378906 C 17.527344 4.378906 17.617188 4.261719 17.617188 4.199219 C 17.617188 4.160156 17.628906 4.132812 17.648438 4.132812 C 17.664062 4.132812 17.695312 4.101562 17.714844 4.066406 C 17.738281 4.023438 17.742188 4.003906 17.726562 4.011719 C 17.710938 4.019531 17.71875 4.007812 17.746094 3.988281 C 17.769531 3.96875 17.792969 3.941406 17.792969 3.925781 C 17.792969 3.914062 17.796875 3.882812 17.796875 3.859375 C 17.800781 3.839844 17.816406 3.820312 17.835938 3.820312 C 17.855469 3.820312 17.871094 3.792969 17.875 3.738281 C 17.878906 3.683594 17.894531 3.65625 17.917969 3.65625 C 17.941406 3.65625 17.953125 3.625 17.957031 3.523438 C 17.964844 3.347656 17.980469 3.285156 18.011719 3.300781 C 18.023438 3.308594 18.03125 3.300781 18.03125 3.285156 C 18.015625 3.179688 18.035156 3.105469 18.078125 3.09375 C 18.128906 3.082031 18.152344 0.621094 18.105469 0.621094 C 18.09375 0.621094 18.066406 0.589844 18.046875 0.550781 C 18.027344 0.511719 17.992188 0.464844 17.964844 0.445312 C 17.941406 0.429688 17.925781 0.40625 17.929688 0.394531 C 17.9375 0.386719 17.929688 0.378906 17.914062 0.378906 C 17.898438 0.378906 17.875 0.359375 17.859375 0.339844 C 17.839844 0.316406 17.804688 0.300781 17.773438 0.296875 C 17.746094 0.296875 17.097656 0.292969 16.335938 0.292969 L 14.949219 0.289062 L 14.949219 0.164062 C 14.949219 0.0898438 14.941406 0.046875 14.925781 0.0546875 C 14.914062 0.0625 14.898438 0.0546875 14.890625 0.0351562 C 14.875 -0.0078125 7.796875 -0.0195312 7.796875 0.0234375 M 2.167969 0.238281 C 2.152344 0.242188 2.144531 0.257812 2.152344 0.269531 C 2.160156 0.277344 2.140625 0.292969 2.109375 0.300781 C 2.0625 0.3125 2.054688 0.328125 2.050781 0.4375 C 2.046875 0.519531 2.03125 0.570312 2.003906 0.597656 C 1.972656 0.628906 1.964844 0.664062 1.96875 0.722656 C 1.976562 0.765625 1.972656 0.796875 1.960938 0.792969 C 1.953125 0.789062 1.929688 0.796875 1.910156 0.816406 C 1.878906 0.847656 1.878906 0.851562 1.914062 0.839844 C 1.976562 0.816406 1.980469 0.882812 1.917969 0.90625 C 1.886719 0.921875 1.863281 0.949219 1.863281 0.980469 C 1.863281 1.019531 1.859375 1.023438 1.828125 1 C 1.800781 0.976562 1.796875 0.976562 1.804688 1.003906 C 1.820312 1.042969 1.691406 1.1875 1.660156 1.167969 C 1.648438 1.160156 1.640625 1.179688 1.644531 1.210938 C 1.648438 1.242188 1.640625 1.269531 1.625 1.269531 C 1.507812 1.285156 1.453125 1.3125 1.464844 1.351562 C 1.480469 1.382812 1.476562 1.386719 1.441406 1.359375 C 1.421875 1.339844 1.402344 1.3125 1.402344 1.292969 C 1.402344 1.257812 1.398438 1.257812 1.378906 1.292969 C 1.367188 1.3125 1.332031 1.335938 1.300781 1.34375 C 1.265625 1.351562 1.246094 1.363281 1.25 1.375 C 1.257812 1.386719 1.234375 1.390625 1.199219 1.386719 C 1.148438 1.378906 1.144531 1.378906 1.183594 1.398438 C 1.222656 1.414062 1.21875 1.417969 1.148438 1.421875 C 1.082031 1.421875 1.058594 1.433594 1.050781 1.46875 C 1.042969 1.5 1.027344 1.507812 1.011719 1.5 C 0.992188 1.488281 0.988281 1.492188 1 1.507812 C 1.007812 1.523438 1.007812 1.535156 0.996094 1.535156 C 0.953125 1.535156 0.96875 1.628906 1.011719 1.636719 C 1.054688 1.648438 1.070312 1.695312 1.058594 1.773438 C 1.054688 1.792969 1.066406 1.800781 1.089844 1.792969 C 1.113281 1.785156 1.136719 1.796875 1.15625 1.828125 C 1.175781 1.863281 1.207031 1.878906 1.257812 1.878906 C 1.296875 1.878906 1.324219 1.871094 1.320312 1.859375 C 1.289062 1.8125 1.359375 1.855469 1.394531 1.90625 C 1.429688 1.957031 1.539062 2.003906 1.507812 1.957031 C 1.5 1.945312 1.507812 1.933594 1.527344 1.925781 C 1.542969 1.921875 1.570312 1.933594 1.582031 1.960938 C 1.601562 1.988281 1.625 1.996094 1.65625 1.988281 C 1.679688 1.980469 1.703125 1.988281 1.714844 2 C 1.722656 2.011719 1.714844 2.019531 1.699219 2.015625 C 1.683594 2.015625 1.664062 2.03125 1.660156 2.054688 C 1.65625 2.078125 1.660156 2.09375 1.667969 2.085938 C 1.691406 2.0625 1.753906 2.128906 1.734375 2.160156 C 1.722656 2.175781 1.730469 2.179688 1.753906 2.171875 C 1.792969 2.15625 1.804688 2.179688 1.792969 2.234375 C 1.792969 2.246094 1.796875 2.25 1.804688 2.242188 C 1.835938 2.210938 1.929688 2.320312 1.902344 2.355469 C 1.878906 2.382812 1.878906 2.386719 1.914062 2.359375 C 1.9375 2.34375 1.964844 2.335938 1.984375 2.347656 C 2.023438 2.371094 2.027344 2.445312 1.988281 2.445312 C 1.964844 2.445312 1.964844 2.457031 1.984375 2.5 C 2 2.527344 2.019531 2.546875 2.035156 2.539062 C 2.046875 2.53125 2.046875 2.542969 2.039062 2.5625 C 2.027344 2.59375 2.03125 2.597656 2.066406 2.582031 C 2.109375 2.558594 2.128906 2.707031 2.082031 2.738281 C 2.070312 2.75 2.074219 2.753906 2.097656 2.753906 C 2.121094 2.753906 2.140625 2.765625 2.140625 2.777344 C 2.140625 2.792969 2.128906 2.796875 2.117188 2.789062 C 2.105469 2.785156 2.101562 2.796875 2.109375 2.824219 C 2.117188 2.847656 2.132812 2.875 2.144531 2.882812 C 2.160156 2.890625 2.164062 2.882812 2.15625 2.863281 C 2.148438 2.839844 2.160156 2.832031 2.207031 2.832031 C 2.242188 2.832031 2.265625 2.839844 2.261719 2.851562 C 2.253906 2.863281 2.234375 2.863281 2.21875 2.859375 C 2.171875 2.839844 2.175781 2.851562 2.234375 2.898438 C 2.261719 2.921875 2.277344 2.925781 2.273438 2.90625 C 2.257812 2.867188 2.304688 2.824219 2.34375 2.839844 C 2.363281 2.847656 2.371094 2.839844 2.363281 2.820312 C 2.355469 2.804688 2.335938 2.792969 2.320312 2.796875 C 2.300781 2.800781 2.300781 2.789062 2.328125 2.761719 C 2.351562 2.738281 2.371094 2.691406 2.371094 2.652344 C 2.371094 2.597656 2.375 2.59375 2.390625 2.632812 C 2.410156 2.671875 2.410156 2.671875 2.414062 2.640625 C 2.414062 2.617188 2.429688 2.601562 2.449219 2.601562 C 2.464844 2.601562 2.488281 2.589844 2.496094 2.578125 C 2.503906 2.566406 2.496094 2.558594 2.484375 2.5625 C 2.46875 2.5625 2.449219 2.554688 2.445312 2.535156 C 2.4375 2.519531 2.441406 2.511719 2.453125 2.515625 C 2.464844 2.523438 2.492188 2.507812 2.515625 2.484375 C 2.558594 2.445312 2.558594 2.445312 2.515625 2.445312 C 2.484375 2.445312 2.480469 2.4375 2.503906 2.425781 C 2.527344 2.410156 2.53125 2.402344 2.503906 2.394531 C 2.480469 2.386719 2.484375 2.375 2.511719 2.335938 C 2.53125 2.3125 2.554688 2.296875 2.566406 2.304688 C 2.574219 2.316406 2.578125 2.308594 2.570312 2.289062 C 2.558594 2.257812 2.589844 2.210938 2.628906 2.207031 C 2.6875 2.199219 2.699219 2.179688 2.667969 2.15625 C 2.636719 2.136719 2.636719 2.132812 2.671875 2.132812 C 2.695312 2.132812 2.71875 2.121094 2.726562 2.109375 C 2.738281 2.089844 2.734375 2.089844 2.710938 2.101562 C 2.695312 2.109375 2.703125 2.089844 2.734375 2.058594 C 2.785156 2.003906 2.789062 2 2.746094 2 C 2.703125 1.996094 2.703125 1.996094 2.75 1.980469 C 2.773438 1.96875 2.800781 1.96875 2.804688 1.976562 C 2.832031 2.007812 2.875 1.996094 2.886719 1.957031 C 2.894531 1.929688 2.910156 1.910156 2.925781 1.910156 C 2.9375 1.910156 2.941406 1.902344 2.933594 1.890625 C 2.925781 1.878906 2.929688 1.863281 2.941406 1.855469 C 2.953125 1.851562 2.960938 1.867188 2.957031 1.898438 C 2.953125 1.9375 2.960938 1.949219 2.984375 1.9375 C 3.003906 1.929688 3.015625 1.933594 3.007812 1.949219 C 2.988281 1.972656 3.070312 1.972656 3.097656 1.945312 C 3.109375 1.9375 3.117188 1.917969 3.117188 1.90625 C 3.117188 1.890625 3.140625 1.878906 3.175781 1.878906 C 3.261719 1.875 3.289062 1.851562 3.273438 1.777344 C 3.265625 1.734375 3.273438 1.691406 3.296875 1.65625 C 3.316406 1.625 3.335938 1.558594 3.335938 1.507812 L 3.335938 1.417969 L 3.425781 1.425781 C 3.484375 1.429688 3.511719 1.425781 3.503906 1.410156 C 3.496094 1.394531 3.445312 1.386719 3.367188 1.390625 C 3.300781 1.390625 3.25 1.386719 3.257812 1.375 C 3.261719 1.363281 3.253906 1.355469 3.234375 1.355469 C 3.214844 1.355469 3.175781 1.335938 3.152344 1.3125 C 3.109375 1.269531 3.105469 1.269531 3.09375 1.3125 C 3.078125 1.359375 3.078125 1.359375 3.035156 1.3125 C 3.011719 1.285156 2.988281 1.273438 2.980469 1.285156 C 2.96875 1.300781 2.945312 1.300781 2.910156 1.285156 C 2.878906 1.269531 2.859375 1.253906 2.863281 1.242188 C 2.871094 1.234375 2.84375 1.214844 2.804688 1.199219 C 2.75 1.179688 2.742188 1.164062 2.761719 1.140625 C 2.792969 1.109375 2.738281 1.039062 2.6875 1.050781 C 2.671875 1.054688 2.660156 1.03125 2.65625 1 C 2.65625 0.96875 2.644531 0.945312 2.632812 0.949219 C 2.621094 0.949219 2.589844 0.929688 2.566406 0.902344 C 2.539062 0.875 2.527344 0.863281 2.539062 0.871094 C 2.550781 0.882812 2.578125 0.886719 2.597656 0.886719 C 2.621094 0.886719 2.625 0.882812 2.605469 0.875 C 2.582031 0.867188 2.582031 0.855469 2.597656 0.835938 C 2.617188 0.8125 2.609375 0.808594 2.5625 0.816406 C 2.507812 0.828125 2.5 0.824219 2.515625 0.785156 C 2.542969 0.71875 2.542969 0.707031 2.511719 0.695312 C 2.496094 0.691406 2.484375 0.699219 2.484375 0.71875 C 2.484375 0.738281 2.476562 0.757812 2.464844 0.761719 C 2.457031 0.769531 2.449219 0.703125 2.453125 0.613281 C 2.457031 0.46875 2.433594 0.386719 2.394531 0.410156 C 2.386719 0.414062 2.375 0.398438 2.375 0.371094 C 2.371094 0.328125 2.351562 0.308594 2.304688 0.304688 C 2.296875 0.304688 2.273438 0.285156 2.257812 0.261719 C 2.226562 0.222656 2.21875 0.21875 2.167969 0.238281 M 2.90625 1.214844 C 2.90625 1.265625 2.96875 1.242188 2.964844 1.191406 C 2.964844 1.175781 2.957031 1.179688 2.945312 1.195312 C 2.929688 1.222656 2.925781 1.222656 2.914062 1.195312 C 2.90625 1.179688 2.902344 1.1875 2.90625 1.214844 M 7.703125 3.101562 L 7.703125 4.800781 L 7.292969 4.800781 C 6.902344 4.800781 6.882812 4.796875 6.871094 4.753906 C 6.863281 4.730469 6.84375 4.710938 6.820312 4.710938 C 6.800781 4.710938 6.785156 4.703125 6.785156 4.691406 C 6.785156 4.65625 6.667969 4.5 6.644531 4.503906 C 6.632812 4.507812 6.625 4.492188 6.625 4.46875 C 6.625 4.445312 6.613281 4.417969 6.597656 4.410156 C 6.578125 4.398438 6.578125 4.402344 6.589844 4.425781 C 6.605469 4.449219 6.605469 4.449219 6.570312 4.425781 C 6.550781 4.410156 6.53125 4.378906 6.53125 4.363281 C 6.53125 4.347656 6.515625 4.332031 6.5 4.332031 C 6.480469 4.332031 6.460938 4.3125 6.453125 4.289062 C 6.445312 4.269531 6.421875 4.242188 6.40625 4.234375 C 6.386719 4.230469 6.371094 4.207031 6.371094 4.191406 C 6.371094 4.171875 6.355469 4.15625 6.339844 4.15625 C 6.320312 4.15625 6.296875 4.136719 6.289062 4.109375 C 6.28125 4.085938 6.261719 4.066406 6.246094 4.066406 C 6.230469 4.066406 6.207031 4.050781 6.203125 4.035156 C 6.195312 4.015625 6.171875 4 6.152344 4 C 6.132812 4 6.117188 3.980469 6.117188 3.957031 C 6.117188 3.929688 6.101562 3.910156 6.082031 3.910156 C 6.066406 3.910156 6.050781 3.898438 6.050781 3.886719 C 6.050781 3.871094 6.027344 3.835938 6.003906 3.8125 C 5.980469 3.789062 5.957031 3.742188 5.953125 3.710938 C 5.949219 3.679688 5.925781 3.640625 5.90625 3.621094 C 5.882812 3.601562 5.863281 3.566406 5.863281 3.546875 C 5.863281 3.527344 5.847656 3.511719 5.832031 3.511719 C 5.800781 3.511719 5.78125 3.453125 5.792969 3.390625 C 5.796875 3.382812 5.777344 3.367188 5.75 3.363281 C 5.726562 3.355469 5.703125 3.34375 5.703125 3.332031 C 5.703125 3.324219 5.6875 3.296875 5.667969 3.28125 C 5.648438 3.261719 5.632812 3.207031 5.628906 3.152344 C 5.628906 3.089844 5.617188 3.054688 5.585938 3.039062 C 5.546875 3.011719 5.542969 2.96875 5.542969 2.207031 L 5.542969 1.398438 L 7.703125 1.398438 L 7.703125 3.101562 M 17.136719 2.207031 C 17.136719 2.988281 17.132812 3.011719 17.089844 3.039062 C 17.0625 3.054688 17.042969 3.089844 17.042969 3.125 C 17.042969 3.152344 17.027344 3.183594 17.007812 3.191406 C 16.988281 3.199219 16.972656 3.234375 16.972656 3.28125 C 16.972656 3.347656 16.957031 3.367188 16.898438 3.359375 C 16.890625 3.355469 16.882812 3.363281 16.882812 3.371094 C 16.894531 3.4375 16.878906 3.511719 16.847656 3.511719 C 16.832031 3.511719 16.8125 3.535156 16.808594 3.5625 C 16.804688 3.589844 16.785156 3.609375 16.765625 3.609375 C 16.742188 3.609375 16.730469 3.636719 16.726562 3.691406 C 16.722656 3.738281 16.699219 3.789062 16.671875 3.8125 C 16.648438 3.832031 16.628906 3.863281 16.628906 3.878906 C 16.628906 3.894531 16.609375 3.910156 16.582031 3.917969 C 16.558594 3.925781 16.535156 3.945312 16.535156 3.964844 C 16.535156 3.984375 16.519531 4 16.503906 4 C 16.484375 4 16.46875 4.007812 16.46875 4.019531 C 16.46875 4.050781 16.347656 4.167969 16.324219 4.160156 C 16.316406 4.15625 16.308594 4.167969 16.308594 4.1875 C 16.308594 4.203125 16.289062 4.226562 16.261719 4.234375 C 16.238281 4.238281 16.214844 4.265625 16.207031 4.292969 C 16.199219 4.316406 16.183594 4.332031 16.171875 4.324219 C 16.15625 4.316406 16.144531 4.324219 16.144531 4.34375 C 16.144531 4.359375 16.125 4.386719 16.101562 4.398438 C 16.074219 4.414062 16.054688 4.433594 16.054688 4.445312 C 16.054688 4.464844 16.03125 4.492188 15.925781 4.609375 C 15.894531 4.640625 15.871094 4.679688 15.871094 4.691406 C 15.871094 4.703125 15.855469 4.710938 15.835938 4.710938 C 15.816406 4.710938 15.800781 4.730469 15.800781 4.753906 C 15.800781 4.796875 15.785156 4.800781 15.46875 4.800781 C 15.1875 4.800781 15.132812 4.804688 15.132812 4.832031 C 15.132812 4.855469 15.113281 4.867188 15.078125 4.867188 C 15.035156 4.867188 15.023438 4.855469 15.035156 4.832031 C 15.042969 4.808594 15.03125 4.800781 15 4.800781 L 14.949219 4.800781 L 14.949219 1.398438 L 17.136719 1.398438 L 17.136719 2.207031 M 11.800781 1.671875 C 12.339844 1.894531 12.707031 2.40625 12.753906 3.011719 C 12.785156 3.371094 12.632812 3.847656 12.421875 4.082031 L 12.363281 4.144531 L 12.355469 5.445312 C 12.351562 6.183594 12.339844 6.753906 12.328125 6.765625 C 12.308594 6.78125 12.144531 6.675781 11.824219 6.441406 C 11.765625 6.398438 11.695312 6.355469 11.667969 6.347656 C 11.640625 6.339844 11.613281 6.316406 11.605469 6.300781 C 11.597656 6.28125 11.578125 6.265625 11.558594 6.265625 C 11.539062 6.265625 11.515625 6.246094 11.5 6.222656 C 11.445312 6.125 11.253906 6.140625 11.125 6.257812 C 11.078125 6.296875 11.027344 6.332031 11.015625 6.332031 C 11.007812 6.332031 10.96875 6.355469 10.933594 6.386719 C 10.898438 6.414062 10.855469 6.441406 10.84375 6.445312 C 10.832031 6.453125 10.71875 6.527344 10.59375 6.621094 C 10.265625 6.859375 10.292969 6.964844 10.285156 5.460938 L 10.277344 4.210938 L 10.226562 4.144531 C 10.179688 4.085938 10.140625 4.015625 10.039062 3.816406 C 10.019531 3.78125 10.003906 3.738281 10.003906 3.71875 C 10.003906 3.703125 9.984375 3.632812 9.960938 3.5625 C 9.921875 3.457031 9.914062 3.378906 9.914062 3.109375 C 9.914062 2.84375 9.921875 2.765625 9.960938 2.660156 C 9.984375 2.589844 10.003906 2.519531 10.003906 2.503906 C 10.003906 2.472656 10.042969 2.390625 10.101562 2.289062 C 10.113281 2.269531 10.132812 2.230469 10.144531 2.199219 C 10.230469 2.011719 10.5 1.769531 10.71875 1.6875 C 10.996094 1.582031 11.566406 1.574219 11.800781 1.671875 M 3.554688 1.667969 C 3.53125 1.691406 3.519531 1.71875 3.527344 1.726562 C 3.535156 1.734375 3.542969 1.730469 3.542969 1.714844 C 3.542969 1.699219 3.554688 1.6875 3.574219 1.6875 C 3.589844 1.6875 3.601562 1.675781 3.601562 1.65625 C 3.601562 1.613281 3.601562 1.613281 3.554688 1.667969 M 20.40625 6.6875 C 20.386719 6.714844 20.355469 6.734375 20.339844 6.734375 C 20.324219 6.734375 20.308594 6.753906 20.304688 6.785156 C 20.300781 6.8125 20.289062 6.828125 20.277344 6.824219 C 20.242188 6.8125 20.21875 6.871094 20.21875 6.960938 C 20.21875 7.015625 20.207031 7.042969 20.183594 7.042969 C 20.148438 7.042969 20.125 7.089844 20.125 7.15625 C 20.125 7.175781 20.109375 7.199219 20.089844 7.207031 C 20.070312 7.214844 20.054688 7.25 20.054688 7.300781 C 20.054688 7.363281 20.046875 7.378906 20.011719 7.378906 C 19.984375 7.378906 19.964844 7.390625 19.964844 7.40625 C 19.964844 7.445312 19.867188 7.527344 19.8125 7.535156 C 19.789062 7.542969 19.753906 7.5625 19.738281 7.582031 C 19.722656 7.605469 19.683594 7.621094 19.65625 7.621094 C 19.621094 7.621094 19.585938 7.644531 19.5625 7.679688 C 19.542969 7.710938 19.515625 7.730469 19.507812 7.722656 C 19.480469 7.707031 19.390625 7.773438 19.390625 7.808594 C 19.390625 7.824219 19.367188 7.84375 19.34375 7.851562 C 19.316406 7.855469 19.296875 7.878906 19.296875 7.898438 C 19.296875 7.917969 19.28125 7.933594 19.261719 7.933594 C 19.242188 7.933594 19.226562 7.945312 19.226562 7.960938 C 19.214844 8.042969 19.234375 8.121094 19.269531 8.144531 C 19.289062 8.160156 19.308594 8.1875 19.308594 8.203125 C 19.308594 8.222656 19.34375 8.234375 19.40625 8.238281 C 19.472656 8.242188 19.503906 8.238281 19.503906 8.21875 C 19.503906 8.203125 19.523438 8.21875 19.550781 8.253906 C 19.574219 8.292969 19.605469 8.324219 19.617188 8.324219 C 19.632812 8.328125 19.65625 8.328125 19.675781 8.332031 C 19.695312 8.332031 19.710938 8.347656 19.710938 8.367188 C 19.710938 8.398438 19.738281 8.410156 19.785156 8.402344 C 19.796875 8.402344 19.804688 8.414062 19.804688 8.433594 C 19.804688 8.449219 19.816406 8.472656 19.832031 8.480469 C 19.851562 8.492188 19.871094 8.515625 19.878906 8.539062 C 19.886719 8.558594 19.910156 8.578125 19.925781 8.578125 C 19.945312 8.578125 19.964844 8.59375 19.972656 8.609375 C 19.980469 8.628906 20 8.644531 20.019531 8.644531 C 20.035156 8.644531 20.054688 8.675781 20.0625 8.710938 C 20.070312 8.75 20.089844 8.773438 20.101562 8.765625 C 20.113281 8.757812 20.125 8.773438 20.125 8.804688 C 20.125 8.890625 20.152344 8.957031 20.183594 8.957031 C 20.207031 8.957031 20.21875 8.980469 20.21875 9.035156 C 20.21875 9.082031 20.230469 9.117188 20.25 9.125 C 20.269531 9.132812 20.289062 9.15625 20.296875 9.179688 C 20.304688 9.203125 20.328125 9.222656 20.34375 9.222656 C 20.363281 9.222656 20.386719 9.238281 20.394531 9.257812 C 20.421875 9.300781 20.539062 9.277344 20.539062 9.230469 C 20.539062 9.210938 20.554688 9.199219 20.578125 9.203125 C 20.609375 9.210938 20.617188 9.1875 20.625 9.089844 C 20.628906 9.023438 20.644531 8.957031 20.660156 8.945312 C 20.675781 8.933594 20.691406 8.898438 20.695312 8.867188 C 20.703125 8.835938 20.707031 8.800781 20.710938 8.785156 C 20.710938 8.769531 20.722656 8.75 20.734375 8.738281 C 20.746094 8.730469 20.746094 8.738281 20.738281 8.753906 C 20.726562 8.773438 20.734375 8.769531 20.753906 8.746094 C 20.777344 8.722656 20.792969 8.691406 20.792969 8.671875 C 20.792969 8.65625 20.808594 8.644531 20.828125 8.644531 C 20.847656 8.644531 20.867188 8.628906 20.875 8.609375 C 20.882812 8.59375 20.902344 8.578125 20.921875 8.578125 C 20.9375 8.578125 20.953125 8.558594 20.953125 8.535156 C 20.953125 8.511719 20.972656 8.488281 21 8.484375 C 21.023438 8.476562 21.046875 8.453125 21.046875 8.433594 C 21.046875 8.414062 21.054688 8.402344 21.070312 8.410156 C 21.082031 8.421875 21.101562 8.40625 21.105469 8.378906 C 21.113281 8.355469 21.132812 8.332031 21.152344 8.332031 C 21.21875 8.324219 21.230469 8.320312 21.273438 8.285156 C 21.296875 8.265625 21.359375 8.242188 21.410156 8.238281 C 21.464844 8.238281 21.507812 8.222656 21.507812 8.210938 C 21.507812 8.199219 21.53125 8.175781 21.5625 8.160156 C 21.628906 8.128906 21.648438 7.933594 21.589844 7.933594 C 21.570312 7.933594 21.550781 7.914062 21.542969 7.890625 C 21.539062 7.863281 21.515625 7.84375 21.496094 7.84375 C 21.476562 7.84375 21.460938 7.832031 21.460938 7.816406 C 21.460938 7.757812 21.371094 7.707031 21.296875 7.714844 C 21.242188 7.722656 21.21875 7.714844 21.191406 7.675781 C 21.167969 7.644531 21.132812 7.621094 21.101562 7.621094 C 21.066406 7.621094 21.042969 7.605469 21.035156 7.578125 C 21.027344 7.554688 21.003906 7.535156 20.984375 7.535156 C 20.96875 7.535156 20.953125 7.523438 20.953125 7.511719 C 20.953125 7.480469 20.847656 7.378906 20.816406 7.378906 C 20.804688 7.378906 20.792969 7.347656 20.792969 7.3125 C 20.792969 7.25 20.742188 7.1875 20.714844 7.214844 C 20.707031 7.222656 20.699219 7.1875 20.699219 7.136719 C 20.699219 7.070312 20.691406 7.042969 20.664062 7.042969 C 20.640625 7.042969 20.628906 7.015625 20.628906 6.933594 C 20.625 6.871094 20.621094 6.8125 20.621094 6.800781 C 20.617188 6.789062 20.613281 6.769531 20.609375 6.757812 C 20.609375 6.746094 20.59375 6.742188 20.574219 6.746094 C 20.554688 6.753906 20.539062 6.746094 20.539062 6.730469 C 20.539062 6.667969 20.449219 6.640625 20.40625 6.6875 M 18.148438 10.796875 C 18.148438 10.808594 18.164062 10.824219 18.183594 10.832031 C 18.207031 10.839844 18.214844 10.835938 18.210938 10.816406 C 18.199219 10.785156 18.148438 10.765625 18.148438 10.796875 M 8.894531 15.542969 C 8.859375 15.570312 8.855469 15.636719 8.855469 16.429688 C 8.855469 17.378906 8.863281 17.34375 8.703125 17.265625 C 8.613281 17.222656 8.613281 17.222656 8.667969 17.265625 C 8.742188 17.328125 8.847656 17.332031 8.882812 17.28125 C 8.894531 17.265625 8.902344 16.878906 8.898438 16.414062 C 8.898438 15.796875 8.90625 15.566406 8.925781 15.542969 C 8.960938 15.503906 8.949219 15.503906 8.894531 15.542969 M 4.335938 17 C 4.335938 17.800781 4.335938 18.128906 4.339844 17.726562 C 4.34375 17.328125 4.34375 16.671875 4.339844 16.273438 C 4.335938 15.871094 4.335938 16.199219 4.335938 17 M 16.929688 15.589844 C 16.960938 15.605469 16.996094 15.621094 17.007812 15.621094 C 17.019531 15.621094 17.003906 15.605469 16.972656 15.589844 C 16.941406 15.570312 16.90625 15.558594 16.894531 15.558594 C 16.878906 15.558594 16.894531 15.570312 16.929688 15.589844 M 16.25 17 C 16.25 17.75 16.25 18.058594 16.253906 17.683594 C 16.257812 17.308594 16.257812 16.691406 16.253906 16.316406 C 16.25 15.941406 16.25 16.25 16.25 17 M 17.628906 17 C 17.628906 17.226562 17.632812 17.320312 17.636719 17.207031 C 17.640625 17.09375 17.640625 16.90625 17.636719 16.792969 C 17.632812 16.679688 17.628906 16.773438 17.628906 17 M 7.394531 16.664062 C 7.386719 16.675781 7.3125 16.71875 7.230469 16.757812 C 7.144531 16.796875 7.089844 16.835938 7.105469 16.839844 C 7.121094 16.84375 7.164062 16.828125 7.199219 16.804688 C 7.234375 16.777344 7.289062 16.75 7.320312 16.742188 C 7.355469 16.734375 7.394531 16.714844 7.40625 16.699219 C 7.445312 16.652344 7.539062 16.660156 7.605469 16.710938 C 7.640625 16.734375 7.679688 16.753906 7.695312 16.753906 C 7.710938 16.753906 7.734375 16.769531 7.75 16.789062 C 7.765625 16.804688 7.808594 16.824219 7.84375 16.832031 C 7.882812 16.839844 7.910156 16.855469 7.910156 16.863281 C 7.910156 16.875 7.949219 16.898438 8 16.917969 C 8.046875 16.9375 8.101562 16.964844 8.117188 16.976562 C 8.226562 17.039062 8.585938 17.222656 8.59375 17.21875 C 8.597656 17.210938 8.488281 17.148438 8.355469 17.078125 C 8.21875 17.003906 8.101562 16.9375 8.097656 16.929688 C 8.089844 16.921875 8.054688 16.90625 8.023438 16.898438 C 7.988281 16.890625 7.949219 16.871094 7.933594 16.851562 C 7.917969 16.835938 7.894531 16.820312 7.878906 16.820312 C 7.863281 16.820312 7.824219 16.800781 7.789062 16.777344 C 7.757812 16.753906 7.71875 16.734375 7.699219 16.734375 C 7.679688 16.734375 7.640625 16.714844 7.605469 16.6875 C 7.546875 16.644531 7.417969 16.628906 7.394531 16.664062 M 6.910156 16.921875 C 6.867188 16.9375 6.832031 16.960938 6.824219 16.972656 C 6.816406 16.984375 6.851562 16.972656 6.902344 16.949219 C 7.027344 16.890625 7.03125 16.867188 6.910156 16.921875 M 6.507812 17.136719 C 6.375 17.210938 6.238281 17.28125 6.203125 17.292969 C 6.167969 17.304688 6.140625 17.328125 6.140625 17.339844 C 6.136719 17.355469 6.128906 17.347656 6.117188 17.320312 C 6.101562 17.285156 6.097656 17.285156 6.097656 17.316406 C 6.09375 17.367188 6.128906 17.382812 6.164062 17.34375 C 6.179688 17.324219 6.203125 17.3125 6.214844 17.3125 C 6.230469 17.3125 6.753906 17.03125 6.78125 17.007812 C 6.832031 16.96875 6.707031 17.023438 6.507812 17.136719 M 6.078125 17.179688 C 6.078125 17.21875 6.082031 17.238281 6.085938 17.214844 C 6.09375 17.195312 6.09375 17.160156 6.085938 17.140625 C 6.082031 17.117188 6.078125 17.136719 6.078125 17.179688 M 15.492188 18.453125 C 15.480469 18.484375 14.988281 18.488281 10.78125 18.496094 L 6.082031 18.5 L 10.777344 18.503906 C 15.652344 18.511719 15.601562 18.511719 15.519531 18.433594 C 15.511719 18.425781 15.5 18.4375 15.492188 18.453125 M 4.003906 18.503906 C 3.832031 18.507812 3.683594 18.519531 3.675781 18.527344 C 3.667969 18.539062 3.800781 18.542969 3.972656 18.539062 C 4.148438 18.535156 4.300781 18.519531 4.3125 18.511719 C 4.324219 18.5 4.328125 18.492188 4.324219 18.492188 C 4.316406 18.496094 4.171875 18.5 4.003906 18.503906 M 5.101562 18.515625 C 5.113281 18.527344 5.304688 18.53125 5.535156 18.527344 L 5.945312 18.523438 L 5.515625 18.511719 C 5.277344 18.503906 5.09375 18.507812 5.101562 18.515625 M 16.394531 18.503906 C 16.460938 18.511719 16.566406 18.511719 16.632812 18.503906 C 16.699219 18.5 16.648438 18.496094 16.515625 18.496094 C 16.382812 18.496094 16.328125 18.5 16.394531 18.503906 M 6.113281 19.261719 C 6.164062 19.265625 6.253906 19.265625 6.308594 19.261719 C 6.363281 19.257812 6.316406 19.253906 6.210938 19.253906 C 6.101562 19.253906 6.058594 19.257812 6.113281 19.261719 M 9.640625 19.261719 C 10.992188 19.265625 13.207031 19.265625 14.5625 19.261719 C 15.921875 19.257812 14.816406 19.253906 12.109375 19.253906 C 9.402344 19.253906 8.292969 19.257812 9.640625 19.261719 "/>
<path style=" stroke:none;fill-rule:evenodd;fill:rgb(35.294118%,60.392157%,90.588235%);fill-opacity:1;" d="M 10.992188 1.644531 C 10.949219 1.652344 10.890625 1.671875 10.863281 1.683594 C 10.835938 1.699219 10.789062 1.710938 10.757812 1.710938 C 10.730469 1.710938 10.679688 1.730469 10.648438 1.753906 C 10.617188 1.78125 10.582031 1.800781 10.566406 1.800781 C 10.445312 1.800781 10.003906 2.4375 10.003906 2.609375 C 10.003906 2.636719 9.988281 2.703125 9.96875 2.753906 C 9.949219 2.820312 9.9375 2.9375 9.9375 3.109375 C 9.9375 3.285156 9.949219 3.402344 9.96875 3.464844 C 9.988281 3.519531 10.003906 3.585938 10.003906 3.617188 C 10.003906 3.667969 10.132812 3.941406 10.246094 4.121094 C 10.335938 4.265625 10.503906 4.414062 10.644531 4.480469 C 10.714844 4.511719 10.800781 4.550781 10.828125 4.5625 C 10.859375 4.578125 11.042969 4.585938 11.289062 4.589844 L 11.695312 4.589844 L 11.890625 4.496094 C 12.160156 4.363281 12.582031 3.9375 12.582031 3.792969 C 12.582031 3.78125 12.601562 3.730469 12.625 3.679688 C 12.730469 3.464844 12.765625 2.992188 12.695312 2.808594 C 12.683594 2.777344 12.671875 2.722656 12.671875 2.683594 C 12.671875 2.648438 12.660156 2.589844 12.640625 2.558594 C 12.621094 2.527344 12.578125 2.441406 12.542969 2.371094 C 12.417969 2.117188 12.019531 1.75 11.820312 1.707031 C 11.789062 1.699219 11.722656 1.675781 11.671875 1.660156 C 11.574219 1.621094 11.152344 1.613281 10.992188 1.644531 M 4.324219 7.789062 C 4.308594 7.820312 4.300781 7.851562 4.3125 7.859375 C 4.320312 7.871094 4.335938 7.867188 4.339844 7.851562 C 4.347656 7.835938 4.363281 7.820312 4.382812 7.820312 C 4.414062 7.820312 4.414062 7.75 4.378906 7.738281 C 4.367188 7.734375 4.339844 7.757812 4.324219 7.789062 M 4.394531 7.859375 C 4.503906 7.902344 4.511719 7.953125 4.40625 7.941406 C 4.308594 7.929688 4.300781 7.929688 4.300781 7.976562 C 4.300781 8.007812 4.285156 8.023438 4.253906 8.023438 C 4.21875 8.023438 4.210938 8.035156 4.210938 8.101562 C 4.210938 8.175781 4.207031 8.179688 4.128906 8.179688 C 4.0625 8.179688 4.046875 8.1875 4.046875 8.222656 C 4.046875 8.246094 4.03125 8.265625 4.015625 8.265625 C 3.996094 8.265625 3.976562 8.296875 3.964844 8.34375 C 3.957031 8.386719 3.941406 8.421875 3.929688 8.421875 C 3.917969 8.421875 3.902344 8.4375 3.894531 8.460938 C 3.886719 8.480469 3.859375 8.515625 3.835938 8.539062 C 3.8125 8.558594 3.796875 8.597656 3.796875 8.621094 C 3.796875 8.648438 3.78125 8.667969 3.757812 8.667969 C 3.742188 8.667969 3.71875 8.683594 3.710938 8.699219 C 3.703125 8.71875 3.667969 8.734375 3.628906 8.734375 C 3.578125 8.734375 3.558594 8.746094 3.546875 8.777344 C 3.542969 8.804688 3.515625 8.820312 3.484375 8.820312 C 3.453125 8.820312 3.414062 8.839844 3.390625 8.859375 C 3.367188 8.882812 3.324219 8.894531 3.277344 8.894531 C 3.183594 8.886719 3.066406 8.980469 3.046875 9.078125 C 3.027344 9.164062 3.128906 9.289062 3.21875 9.289062 C 3.253906 9.289062 3.289062 9.308594 3.308594 9.332031 C 3.324219 9.359375 3.359375 9.378906 3.402344 9.378906 C 3.449219 9.378906 3.472656 9.390625 3.480469 9.421875 C 3.488281 9.453125 3.511719 9.464844 3.5625 9.464844 C 3.605469 9.464844 3.632812 9.476562 3.632812 9.496094 C 3.632812 9.523438 3.675781 9.5625 3.773438 9.609375 C 3.804688 9.625 3.828125 9.648438 3.824219 9.664062 C 3.820312 9.675781 3.832031 9.6875 3.851562 9.6875 C 3.875 9.6875 3.886719 9.710938 3.886719 9.746094 C 3.886719 9.824219 3.96875 9.933594 4.027344 9.933594 C 4.039062 9.933594 4.046875 9.96875 4.046875 10.007812 C 4.046875 10.066406 4.058594 10.089844 4.09375 10.101562 C 4.132812 10.113281 4.140625 10.132812 4.140625 10.21875 C 4.140625 10.300781 4.152344 10.335938 4.207031 10.390625 C 4.246094 10.429688 4.269531 10.46875 4.261719 10.476562 C 4.253906 10.484375 4.285156 10.488281 4.335938 10.488281 C 4.382812 10.488281 4.417969 10.484375 4.410156 10.476562 C 4.402344 10.46875 4.425781 10.429688 4.464844 10.390625 C 4.519531 10.335938 4.53125 10.300781 4.53125 10.21875 C 4.53125 10.132812 4.539062 10.113281 4.578125 10.101562 C 4.609375 10.089844 4.621094 10.066406 4.621094 10.007812 C 4.621094 9.96875 4.632812 9.933594 4.648438 9.933594 C 4.671875 9.933594 4.785156 9.824219 4.785156 9.800781 C 4.785156 9.789062 4.804688 9.777344 4.832031 9.769531 C 4.859375 9.765625 4.875 9.75 4.867188 9.734375 C 4.859375 9.722656 4.871094 9.703125 4.898438 9.6875 C 4.921875 9.675781 4.949219 9.640625 4.957031 9.609375 C 4.964844 9.582031 4.980469 9.5625 4.992188 9.566406 C 5.027344 9.589844 5.027344 9.523438 4.992188 9.496094 C 4.960938 9.472656 4.960938 9.46875 5.003906 9.472656 C 5.039062 9.476562 5.046875 9.464844 5.042969 9.429688 C 5.035156 9.394531 5.046875 9.378906 5.070312 9.378906 C 5.09375 9.378906 5.117188 9.359375 5.121094 9.332031 C 5.132812 9.300781 5.152344 9.289062 5.210938 9.289062 C 5.273438 9.289062 5.289062 9.28125 5.289062 9.25 C 5.289062 9.226562 5.320312 9.179688 5.359375 9.144531 C 5.457031 9.050781 5.449219 9 5.339844 9 C 5.222656 9 5.175781 8.96875 5.242188 8.933594 C 5.328125 8.890625 5.289062 8.820312 5.175781 8.820312 C 5.152344 8.820312 5.128906 8.800781 5.121094 8.777344 C 5.113281 8.746094 5.089844 8.734375 5.042969 8.734375 C 5 8.734375 4.96875 8.71875 4.960938 8.699219 C 4.953125 8.683594 4.929688 8.667969 4.910156 8.667969 C 4.890625 8.667969 4.875 8.648438 4.875 8.621094 C 4.875 8.597656 4.855469 8.558594 4.832031 8.539062 C 4.8125 8.515625 4.785156 8.480469 4.777344 8.460938 C 4.769531 8.4375 4.753906 8.421875 4.742188 8.421875 C 4.730469 8.421875 4.714844 8.386719 4.703125 8.34375 C 4.695312 8.296875 4.675781 8.265625 4.65625 8.265625 C 4.632812 8.265625 4.621094 8.242188 4.621094 8.191406 C 4.621094 8.125 4.550781 8.054688 4.523438 8.09375 C 4.519531 8.097656 4.503906 8.125 4.492188 8.15625 C 4.464844 8.207031 4.464844 8.207031 4.464844 8.125 C 4.460938 8.070312 4.46875 8.046875 4.488281 8.058594 C 4.503906 8.066406 4.503906 8.058594 4.488281 8.023438 C 4.464844 7.988281 4.46875 7.980469 4.492188 7.988281 C 4.511719 7.996094 4.523438 7.976562 4.527344 7.925781 C 4.53125 7.855469 4.527344 7.851562 4.445312 7.851562 C 4.398438 7.847656 4.375 7.851562 4.394531 7.859375 M 4.210938 7.898438 C 4.210938 7.917969 4.195312 7.933594 4.175781 7.933594 C 4.152344 7.933594 4.144531 7.957031 4.148438 8.011719 C 4.148438 8.054688 4.160156 8.089844 4.167969 8.089844 C 4.179688 8.089844 4.1875 8.078125 4.183594 8.0625 C 4.179688 8.007812 4.214844 7.933594 4.246094 7.933594 C 4.261719 7.933594 4.28125 7.921875 4.292969 7.90625 C 4.300781 7.890625 4.300781 7.886719 4.289062 7.894531 C 4.277344 7.902344 4.257812 7.898438 4.238281 7.886719 C 4.214844 7.867188 4.210938 7.871094 4.210938 7.898438 M 5.265625 9.335938 C 5.242188 9.378906 5.246094 9.378906 5.339844 9.375 C 5.414062 9.367188 5.441406 9.355469 5.445312 9.328125 C 5.457031 9.265625 5.300781 9.273438 5.265625 9.335938 M 5.097656 9.421875 C 5.09375 9.445312 5.097656 9.464844 5.105469 9.464844 C 5.117188 9.464844 5.128906 9.449219 5.136719 9.429688 C 5.144531 9.390625 5.148438 9.390625 5.148438 9.429688 C 5.152344 9.453125 5.160156 9.464844 5.175781 9.457031 C 5.203125 9.4375 5.175781 9.378906 5.140625 9.378906 C 5.125 9.378906 5.105469 9.398438 5.097656 9.421875 M 19.121094 22.332031 C 19.121094 22.402344 19.125 22.429688 19.128906 22.394531 C 19.132812 22.359375 19.132812 22.304688 19.128906 22.273438 C 19.125 22.238281 19.121094 22.265625 19.121094 22.332031 "/>
</g>
</svg>
